<svg xmlns="http://www.w3.org/2000/svg" xmlns:xlink="http://www.w3.org/1999/xlink" width="500" zoomAndPan="magnify" viewBox="0 0 375 374.999991" height="500" preserveAspectRatio="xMidYMid meet" version="1.0"><defs><g/><clipPath id="c5651bb8e4"><rect x="0" width="175" y="0" height="375"/></clipPath><clipPath id="48262f3899"><path d="M 264 313 L 306.496094 313 L 306.496094 357.710938 L 264 357.710938 Z M 264 313 " clip-rule="nonzero"/></clipPath><clipPath id="881d882ec5"><path d="M 255 268.632812 L 274 268.632812 L 274 287 L 255 287 Z M 255 268.632812 " clip-rule="nonzero"/></clipPath><clipPath id="bbcd0998b3"><path d="M 231.085938 283 L 252 283 L 252 344 L 231.085938 344 Z M 231.085938 283 " clip-rule="nonzero"/></clipPath></defs><rect x="-37.5" width="450" fill="#ffffff" y="-37.499999" height="449.999989" fill-opacity="1"/><rect x="-37.5" width="450" fill="#ffffff" y="-37.499999" height="449.999989" fill-opacity="1"/><g transform="matrix(1, 0, 0, 1, 37, 0)"><g clip-path="url(#c5651bb8e4)"><g fill="#000000" fill-opacity="1"><g transform="translate(0.500002, 351.500143)"><g><path d="M 158.46875 -82.765625 C 161.6875 -82.765625 164.222656 -81.28125 166.078125 -78.3125 C 167.929688 -75.34375 168.859375 -71.257812 168.859375 -66.0625 C 168.859375 -56.164062 166.507812 -48.492188 161.8125 -43.046875 C 151.175781 -29.929688 139.609375 -19.164062 127.109375 -10.75 C 114.617188 -2.34375 100.453125 1.859375 84.609375 1.859375 C 62.835938 1.859375 46.691406 -8.035156 36.171875 -27.828125 C 25.660156 -47.628906 20.40625 -73.238281 20.40625 -104.65625 C 20.40625 -134.84375 24.300781 -169.234375 32.09375 -207.828125 C 39.894531 -246.421875 51.398438 -279.570312 66.609375 -307.28125 C 81.828125 -335 99.953125 -348.859375 120.984375 -348.859375 C 132.859375 -348.859375 142.195312 -343.351562 149 -332.34375 C 155.8125 -321.332031 159.21875 -305.5625 159.21875 -285.03125 C 159.21875 -255.582031 151.050781 -221.4375 134.71875 -182.59375 C 118.382812 -143.75 96.238281 -105.273438 68.28125 -67.171875 C 70.019531 -57.023438 72.867188 -49.785156 76.828125 -45.453125 C 80.785156 -41.128906 85.976562 -38.96875 92.40625 -38.96875 C 102.550781 -38.96875 111.457031 -41.875 119.125 -47.6875 C 126.800781 -53.5 136.578125 -63.457031 148.453125 -77.5625 C 151.421875 -81.03125 154.757812 -82.765625 158.46875 -82.765625 Z M 112.828125 -312.109375 C 107.128906 -312.109375 100.691406 -301.84375 93.515625 -281.3125 C 86.347656 -260.78125 80.039062 -235.296875 74.59375 -204.859375 C 69.15625 -174.429688 66.1875 -145.238281 65.6875 -117.28125 C 83.25 -146.226562 97.226562 -175.234375 107.625 -204.296875 C 118.019531 -233.367188 123.21875 -259.90625 123.21875 -283.90625 C 123.21875 -302.707031 119.753906 -312.109375 112.828125 -312.109375 Z M 112.828125 -312.109375 "/></g></g></g></g></g><g clip-path="url(#48262f3899)"><path fill="#000000" d="M 266.214844 321.097656 C 266.789062 321.46875 267.398438 321.8125 268.039062 322.046875 C 271.191406 323.203125 274.445312 323.335938 277.6875 322.605469 C 280.882812 321.886719 284 320.75 287.207031 320.109375 C 287.636719 320.023438 287.199219 326.394531 287.425781 326.894531 C 287.597656 327.265625 287.945312 327.519531 288.308594 327.707031 C 290.636719 328.90625 293.421875 327.660156 293.875 325.074219 C 294.238281 323.011719 294.285156 320.894531 294.015625 318.8125 C 293.839844 317.480469 303.28125 315.5625 305.46875 313.171875 C 305.480469 313.160156 305.511719 313.167969 305.5625 313.164062 C 305.550781 313.164062 306.65625 323.300781 306.476562 327.574219 C 306.335938 330.886719 306.046875 334.507812 304.945312 337.652344 C 304.035156 340.257812 303.5 343.457031 301.640625 345.589844 C 300.308594 347.113281 280.863281 357.074219 272.335938 357.585938 C 271.382812 357.640625 266.285156 358.074219 266.222656 356.929688 C 266.046875 353.664062 265.867188 350.398438 265.6875 347.136719 C 265.171875 337.757812 264.21875 318.757812 264.21875 318.640625 C 264.636719 319.683594 265.300781 320.507812 266.214844 321.097656 " fill-opacity="1" fill-rule="nonzero"/></g><g clip-path="url(#881d882ec5)"><path fill="#000000" d="M 272.925781 280.382812 C 271.691406 280.699219 270.453125 281.027344 269.222656 281.347656 C 268.5625 281.519531 268.453125 281.636719 268.296875 281.003906 C 268.160156 280.441406 268.117188 276.785156 268.0625 275.597656 C 268.007812 274.40625 267.691406 273.445312 266.335938 273.542969 C 265.519531 273.605469 264.703125 273.667969 263.898438 273.8125 C 263.082031 273.964844 262.515625 274.238281 262.273438 275.066406 C 261.808594 276.671875 261.9375 283.746094 261.203125 284.03125 C 259.296875 284.757812 255.304688 286.296875 255.207031 286.328125 C 255.191406 286.261719 255.496094 277.160156 257.09375 272.910156 C 257.898438 270.773438 259.605469 270.632812 261.566406 270.019531 C 263.027344 269.5625 264.527344 269.152344 266.054688 269 C 268.316406 268.773438 270.359375 269.183594 271.246094 271.121094 C 271.949219 272.675781 272.371094 274.34375 272.660156 276.015625 C 272.765625 276.636719 273.574219 280.214844 272.925781 280.382812 " fill-opacity="1" fill-rule="nonzero"/></g><path fill="#000000" d="M 257.398438 294.257812 C 255.929688 293.246094 254.332031 292.597656 252.507812 292.683594 C 252.484375 292.683594 252.453125 292.648438 252.402344 292.621094 C 253.910156 290.988281 255.546875 289.5625 257.652344 288.777344 C 264.570312 286.199219 271.683594 282.890625 279.25 283.515625 C 287.070312 284.160156 294.664062 288.464844 298.664062 295.304688 C 300.671875 298.734375 302.246094 302.339844 303.542969 306.089844 C 304.039062 307.523438 302.976562 308.804688 301.878906 309.636719 C 299.25 311.621094 295.96875 312.378906 292.914062 313.429688 C 293.171875 313.339844 289.765625 307.332031 289.417969 306.824219 C 288.976562 306.183594 288.476562 305.527344 287.757812 305.21875 C 287.074219 304.929688 286.296875 305 285.566406 305.128906 C 284.660156 305.292969 281.769531 306.039062 282.472656 307.429688 C 283.132812 308.734375 283.835938 310.015625 284.5 311.3125 C 285.132812 312.542969 286.054688 313.976562 286.328125 315.335938 C 284.0625 316.289062 281.480469 316.808594 279.089844 317.351562 C 276.675781 317.90625 274.382812 318.402344 271.902344 318.035156 C 268.574219 317.539062 266.234375 315.78125 265.546875 312.015625 C 264.953125 308.738281 264.171875 305.5 263.039062 302.367188 C 262.546875 301.011719 262.03125 299.640625 261.328125 298.382812 C 260.382812 296.699219 258.992188 295.355469 257.398438 294.257812 " fill-opacity="1" fill-rule="nonzero"/><path fill="#000000" d="M 247.160156 310.078125 C 247.5 307.265625 248.015625 304.472656 248.789062 301.746094 C 249.304688 299.921875 249.886719 296.214844 252.636719 297.257812 C 253.167969 297.460938 253.6875 297.746094 254.140625 298.089844 C 256.308594 299.757812 258.429688 302.410156 258.753906 305.171875 C 259.167969 308.65625 262.035156 355.457031 261.449219 355.988281 C 261.371094 356.058594 261.28125 356.085938 261.164062 356.0625 C 257.867188 355.332031 252.640625 354.632812 250.976562 351.359375 C 250.441406 350.296875 250.019531 349.179688 249.730469 348.027344 C 249.578125 347.425781 249.453125 346.789062 249.097656 346.28125 C 248.605469 345.578125 247.804688 345.277344 247.074219 344.890625 C 246.003906 344.328125 246.027344 344.164062 246.058594 342.953125 C 246.117188 340.734375 246.109375 318.734375 247.160156 310.078125 " fill-opacity="1" fill-rule="nonzero"/><g clip-path="url(#bbcd0998b3)"><path fill="#000000" d="M 233.394531 298.664062 C 233.722656 295.140625 234.078125 291.515625 235.722656 288.382812 C 236.8125 286.3125 238.539062 284.464844 240.777344 283.773438 C 242.703125 283.175781 244.828125 283.492188 246.691406 284.269531 C 248.554688 285.046875 250.199219 286.261719 251.796875 287.503906 C 250.722656 288.679688 248.402344 291.226562 248.28125 291.253906 C 248.277344 291.257812 248.273438 291.257812 248.269531 291.257812 C 248.125 291.285156 247.980469 291.207031 247.851562 291.136719 C 245.105469 289.558594 241.804688 289.085938 240.332031 292.53125 C 238.847656 296 237.144531 325.539062 237.644531 329.445312 C 238.015625 332.335938 239.136719 336.175781 242.40625 336.902344 C 242.3125 339.09375 242.222656 341.28125 242.128906 343.492188 C 242.132812 343.382812 239.410156 342.652344 239.191406 342.578125 C 238.089844 342.1875 237.011719 341.707031 236.082031 340.984375 C 232.621094 338.28125 231.371094 333.300781 231.296875 329.121094 C 231.125 318.949219 232.453125 308.769531 233.394531 298.664062 " fill-opacity="1" fill-rule="nonzero"/></g><path fill="#000000" d="M 281.257812 280.3125 C 280.492188 280.148438 279.726562 279.984375 278.960938 279.835938 C 278.53125 279.753906 278.097656 279.695312 277.605469 279.617188 C 277.710938 278.054688 277.667969 276.519531 277.082031 275.035156 C 278.394531 275.675781 279.714844 276.277344 280.59375 277.46875 C 281.117188 278.171875 281.597656 278.925781 281.785156 279.808594 C 281.890625 280.285156 281.738281 280.417969 281.257812 280.3125 " fill-opacity="1" fill-rule="nonzero"/></svg>