<svg xmlns="http://www.w3.org/2000/svg" xmlns:xlink="http://www.w3.org/1999/xlink" width="500" zoomAndPan="magnify" viewBox="0 0 375 374.999991" height="500" preserveAspectRatio="xMidYMid meet" version="1.0"><defs><g/><clipPath id="f89a3a5202"><path d="M 21 0 L 172 0 L 172 352 L 21 352 Z M 21 0 " clip-rule="nonzero"/></clipPath><clipPath id="368feeae1d"><rect x="0" width="184" y="0" height="375"/></clipPath><clipPath id="2ed319c505"><path d="M 241.355469 310.160156 L 267.339844 310.160156 L 267.339844 337.1875 L 241.355469 337.1875 Z M 241.355469 310.160156 " clip-rule="nonzero"/></clipPath><clipPath id="b8bd5858c5"><path d="M 236 283.1875 L 248 283.1875 L 248 294 L 236 294 Z M 236 283.1875 " clip-rule="nonzero"/></clipPath><clipPath id="798fceec3e"><path d="M 221.589844 292 L 235 292 L 235 329 L 221.589844 329 Z M 221.589844 292 " clip-rule="nonzero"/></clipPath></defs><rect x="-37.5" width="450" fill="#ffffff" y="-37.499999" height="449.999989" fill-opacity="1"/><rect x="-37.5" width="450" fill="#ffffff" y="-37.499999" height="449.999989" fill-opacity="1"/><g transform="matrix(1, 0, 0, 1, 30, 0)"><g clip-path="url(#368feeae1d)"><g clip-path="url(#f89a3a5202)"><g fill="#e0efdc" fill-opacity="1"><g transform="translate(1.25785, 349.707275)"><g><path d="M 160.125 -83.625 C 163.375 -83.625 165.9375 -82.125 167.8125 -79.125 C 169.6875 -76.125 170.625 -72 170.625 -66.75 C 170.625 -56.75 168.25 -49 163.5 -43.5 C 152.75 -30.25 141.0625 -19.375 128.4375 -10.875 C 115.8125 -2.375 101.5 1.875 85.5 1.875 C 63.5 1.875 47.1875 -8.125 36.5625 -28.125 C 25.9375 -48.125 20.625 -74 20.625 -105.75 C 20.625 -136.25 24.5625 -171 32.4375 -210 C 40.3125 -249 51.9375 -282.5 67.3125 -310.5 C 82.6875 -338.5 101 -352.5 122.25 -352.5 C 134.25 -352.5 143.6875 -346.9375 150.5625 -335.8125 C 157.4375 -324.6875 160.875 -308.75 160.875 -288 C 160.875 -258.25 152.625 -223.75 136.125 -184.5 C 119.625 -145.25 97.25 -106.375 69 -67.875 C 70.75 -57.625 73.625 -50.3125 77.625 -45.9375 C 81.625 -41.5625 86.875 -39.375 93.375 -39.375 C 103.625 -39.375 112.625 -42.3125 120.375 -48.1875 C 128.125 -54.0625 138 -64.125 150 -78.375 C 153 -81.875 156.375 -83.625 160.125 -83.625 Z M 114 -315.375 C 108.25 -315.375 101.75 -305 94.5 -284.25 C 87.25 -263.5 80.875 -237.75 75.375 -207 C 69.875 -176.25 66.875 -146.75 66.375 -118.5 C 84.125 -147.75 98.25 -177.0625 108.75 -206.4375 C 119.25 -235.8125 124.5 -262.625 124.5 -286.875 C 124.5 -305.875 121 -315.375 114 -315.375 Z M 114 -315.375 "/></g></g></g></g></g></g><g clip-path="url(#2ed319c505)"><path fill="#4670b3" d="M 243 315.160156 C 243.347656 315.386719 243.71875 315.59375 244.109375 315.738281 C 246.03125 316.441406 248.015625 316.523438 249.992188 316.078125 C 251.9375 315.640625 253.839844 314.945312 255.792969 314.558594 C 256.054688 314.503906 255.785156 318.386719 255.925781 318.691406 C 256.03125 318.917969 256.242188 319.074219 256.464844 319.1875 C 257.882812 319.917969 259.578125 319.15625 259.855469 317.582031 C 260.078125 316.324219 260.105469 315.035156 259.941406 313.765625 C 259.835938 312.957031 265.589844 311.785156 266.921875 310.328125 C 266.929688 310.320312 266.949219 310.324219 266.980469 310.324219 C 266.972656 310.324219 267.648438 316.503906 267.539062 319.105469 C 267.453125 321.125 267.273438 323.332031 266.601562 325.25 C 266.050781 326.835938 265.722656 328.785156 264.589844 330.085938 C 263.777344 331.015625 251.925781 337.085938 246.730469 337.398438 C 246.148438 337.433594 243.039062 337.695312 243.003906 336.996094 C 242.894531 335.007812 242.785156 333.019531 242.675781 331.03125 C 242.363281 325.3125 241.78125 313.730469 241.78125 313.664062 C 242.035156 314.296875 242.441406 314.800781 243 315.160156 " fill-opacity="1" fill-rule="nonzero"/></g><g clip-path="url(#b8bd5858c5)"><path fill="#4670b3" d="M 247.089844 290.34375 C 246.335938 290.535156 245.582031 290.738281 244.832031 290.933594 C 244.429688 291.035156 244.363281 291.109375 244.269531 290.722656 C 244.183594 290.382812 244.15625 288.152344 244.125 287.425781 C 244.089844 286.703125 243.898438 286.117188 243.074219 286.175781 C 242.574219 286.214844 242.078125 286.25 241.585938 286.339844 C 241.089844 286.433594 240.742188 286.601562 240.597656 287.105469 C 240.3125 288.082031 240.390625 292.394531 239.941406 292.566406 C 238.78125 293.011719 236.351562 293.949219 236.289062 293.96875 C 236.28125 293.925781 236.464844 288.382812 237.4375 285.789062 C 237.929688 284.488281 238.96875 284.402344 240.164062 284.027344 C 241.054688 283.75 241.96875 283.5 242.902344 283.40625 C 244.28125 283.269531 245.523438 283.519531 246.0625 284.699219 C 246.492188 285.644531 246.75 286.664062 246.925781 287.683594 C 246.992188 288.058594 247.484375 290.242188 247.089844 290.34375 " fill-opacity="1" fill-rule="nonzero"/></g><path fill="#4670b3" d="M 237.625 298.800781 C 236.730469 298.183594 235.757812 297.789062 234.644531 297.839844 C 234.628906 297.839844 234.609375 297.820312 234.578125 297.800781 C 235.5 296.808594 236.496094 295.9375 237.78125 295.460938 C 241.996094 293.886719 246.332031 291.871094 250.941406 292.253906 C 255.710938 292.644531 260.339844 295.269531 262.773438 299.4375 C 264 301.53125 264.957031 303.726562 265.75 306.011719 C 266.050781 306.886719 265.402344 307.667969 264.734375 308.175781 C 263.132812 309.382812 261.132812 309.847656 259.269531 310.484375 C 259.429688 310.429688 257.351562 306.769531 257.140625 306.460938 C 256.871094 306.070312 256.566406 305.667969 256.128906 305.480469 C 255.710938 305.304688 255.238281 305.347656 254.792969 305.425781 C 254.242188 305.527344 252.476562 305.980469 252.90625 306.828125 C 253.308594 307.621094 253.738281 308.40625 254.144531 309.195312 C 254.527344 309.945312 255.089844 310.820312 255.257812 311.648438 C 253.875 312.226562 252.304688 312.542969 250.84375 312.875 C 249.371094 313.214844 247.976562 313.515625 246.464844 313.292969 C 244.4375 312.992188 243.011719 311.917969 242.589844 309.621094 C 242.230469 307.625 241.753906 305.652344 241.0625 303.742188 C 240.761719 302.917969 240.449219 302.082031 240.019531 301.316406 C 239.441406 300.289062 238.597656 299.46875 237.625 298.800781 " fill-opacity="1" fill-rule="nonzero"/><path fill="#4670b3" d="M 231.382812 308.445312 C 231.589844 306.730469 231.90625 305.027344 232.378906 303.363281 C 232.691406 302.253906 233.046875 299.992188 234.722656 300.628906 C 235.046875 300.753906 235.363281 300.925781 235.640625 301.136719 C 236.960938 302.152344 238.253906 303.769531 238.453125 305.453125 C 238.703125 307.578125 240.453125 336.101562 240.09375 336.425781 C 240.046875 336.46875 239.992188 336.484375 239.917969 336.46875 C 237.910156 336.023438 234.722656 335.597656 233.710938 333.601562 C 233.382812 332.957031 233.128906 332.273438 232.953125 331.570312 C 232.859375 331.203125 232.78125 330.820312 232.566406 330.507812 C 232.265625 330.078125 231.777344 329.894531 231.332031 329.660156 C 230.679688 329.320312 230.695312 329.21875 230.710938 328.480469 C 230.75 327.128906 230.746094 313.71875 231.382812 308.445312 " fill-opacity="1" fill-rule="nonzero"/><g clip-path="url(#798fceec3e)"><path fill="#4670b3" d="M 222.996094 301.484375 C 223.195312 299.339844 223.414062 297.128906 224.414062 295.222656 C 225.078125 293.957031 226.132812 292.832031 227.492188 292.410156 C 228.667969 292.046875 229.964844 292.238281 231.097656 292.714844 C 232.234375 293.1875 233.238281 293.925781 234.210938 294.683594 C 233.554688 295.402344 232.144531 296.953125 232.066406 296.96875 C 232.066406 296.972656 232.0625 296.972656 232.0625 296.972656 C 231.972656 296.988281 231.882812 296.941406 231.804688 296.898438 C 230.132812 295.9375 228.121094 295.648438 227.222656 297.75 C 226.320312 299.863281 225.28125 317.867188 225.585938 320.246094 C 225.8125 322.007812 226.492188 324.347656 228.488281 324.792969 C 228.429688 326.128906 228.375 327.460938 228.320312 328.808594 C 228.320312 328.742188 226.660156 328.296875 226.527344 328.25 C 225.855469 328.015625 225.199219 327.722656 224.632812 327.277344 C 222.523438 325.632812 221.761719 322.597656 221.71875 320.046875 C 221.613281 313.847656 222.421875 307.644531 222.996094 301.484375 " fill-opacity="1" fill-rule="nonzero"/></g><path fill="#4670b3" d="M 252.164062 290.300781 C 251.699219 290.203125 251.234375 290.101562 250.765625 290.011719 C 250.503906 289.960938 250.242188 289.925781 249.941406 289.878906 C 250.003906 288.925781 249.976562 287.992188 249.621094 287.085938 C 250.421875 287.476562 251.226562 287.839844 251.761719 288.566406 C 252.078125 288.996094 252.371094 289.457031 252.488281 289.996094 C 252.550781 290.285156 252.457031 290.363281 252.164062 290.300781 " fill-opacity="1" fill-rule="nonzero"/></svg>