<svg xmlns="http://www.w3.org/2000/svg" xmlns:xlink="http://www.w3.org/1999/xlink" width="500" zoomAndPan="magnify" viewBox="0 0 375 374.999991" height="500" preserveAspectRatio="xMidYMid meet" version="1.0"><defs><g/><clipPath id="5032d2f879"><rect x="0" width="284" y="0" height="242"/></clipPath><clipPath id="fae39f0e7b"><path d="M 108.851562 140.484375 L 116.097656 140.484375 L 116.097656 148.015625 L 108.851562 148.015625 Z M 108.851562 140.484375 " clip-rule="nonzero"/></clipPath><clipPath id="ef6492a630"><path d="M 107 133.015625 L 111 133.015625 L 111 137 L 107 137 Z M 107 133.015625 " clip-rule="nonzero"/></clipPath><clipPath id="2c7d66f02a"><path d="M 103.382812 135 L 107 135 L 107 146 L 103.382812 146 Z M 103.382812 135 " clip-rule="nonzero"/></clipPath><clipPath id="c4535b834c"><rect x="0" width="72" y="0" height="268"/></clipPath></defs><rect x="-37.5" width="450" fill="#ffffff" y="-37.499999" height="449.999989" fill-opacity="1"/><rect x="-37.5" width="450" fill="#ffffff" y="-37.499999" height="449.999989" fill-opacity="1"/><g transform="matrix(1, 0, 0, 1, 91, 66)"><g clip-path="url(#5032d2f879)"><g fill="#4670b3" fill-opacity="1"><g transform="translate(0.397679, 173.649604)"><g><path d="M 11.046875 0 L 11.046875 -77.140625 L 25.109375 -77.140625 L 25.109375 0 Z M 18.15625 -89.390625 C 15.632812 -89.390625 13.441406 -90.320312 11.578125 -92.1875 C 9.710938 -94.0625 8.78125 -96.257812 8.78125 -98.78125 C 8.78125 -101.300781 9.710938 -103.492188 11.578125 -105.359375 C 13.441406 -107.222656 15.632812 -108.15625 18.15625 -108.15625 C 20.675781 -108.15625 22.867188 -107.222656 24.734375 -105.359375 C 26.597656 -103.492188 27.53125 -101.300781 27.53125 -98.78125 C 27.53125 -96.257812 26.597656 -94.0625 24.734375 -92.1875 C 22.867188 -90.320312 20.675781 -89.390625 18.15625 -89.390625 Z M 18.15625 -89.390625 "/></g></g></g><g fill="#4670b3" fill-opacity="1"><g transform="translate(36.395078, 173.649604)"><g><path d="M 9.984375 0 L 9.984375 -11.953125 L 46.890625 -11.953125 C 49.304688 -11.953125 51.394531 -12.476562 53.15625 -13.53125 C 54.925781 -14.59375 56.265625 -15.976562 57.171875 -17.6875 C 58.078125 -19.40625 58.53125 -21.222656 58.53125 -23.140625 C 58.53125 -24.953125 58.125 -26.640625 57.3125 -28.203125 C 56.507812 -29.765625 55.273438 -31.023438 53.609375 -31.984375 C 51.953125 -32.941406 49.960938 -33.421875 47.640625 -33.421875 L 32.0625 -33.421875 C 27.125 -33.421875 22.8125 -34.253906 19.125 -35.921875 C 15.445312 -37.585938 12.570312 -40.03125 10.5 -43.25 C 8.4375 -46.476562 7.40625 -50.414062 7.40625 -55.0625 C 7.40625 -58.988281 8.363281 -62.613281 10.28125 -65.9375 C 12.195312 -69.269531 14.867188 -71.96875 18.296875 -74.03125 C 21.722656 -76.101562 25.65625 -77.140625 30.09375 -77.140625 L 65.640625 -77.140625 L 65.640625 -65.1875 L 31.453125 -65.1875 C 28.328125 -65.1875 25.859375 -64.226562 24.046875 -62.3125 C 22.234375 -60.394531 21.328125 -58.128906 21.328125 -55.515625 C 21.328125 -52.992188 22.257812 -50.796875 24.125 -48.921875 C 25.988281 -47.054688 28.632812 -46.125 32.0625 -46.125 L 46.890625 -46.125 C 52.429688 -46.125 57.09375 -45.242188 60.875 -43.484375 C 64.65625 -41.722656 67.53125 -39.175781 69.5 -35.84375 C 71.46875 -32.519531 72.453125 -28.4375 72.453125 -23.59375 C 72.453125 -19.457031 71.441406 -15.597656 69.421875 -12.015625 C 67.410156 -8.441406 64.613281 -5.546875 61.03125 -3.328125 C 57.445312 -1.109375 53.285156 0 48.546875 0 Z M 9.984375 0 "/></g></g></g><g fill="#4670b3" fill-opacity="1"><g transform="translate(116.10361, 173.649604)"><g><path d="M 50.21875 0 C 41.75 0 34.234375 -1.585938 27.671875 -4.765625 C 21.117188 -7.941406 16.003906 -12.425781 12.328125 -18.21875 C 8.648438 -24.019531 6.8125 -30.800781 6.8125 -38.5625 C 6.8125 -46.226562 8.375 -53.109375 11.5 -59.203125 C 14.625 -65.304688 18.957031 -70.125 24.5 -73.65625 C 30.050781 -77.1875 36.503906 -78.953125 43.859375 -78.953125 C 51.828125 -78.953125 58.457031 -77.238281 63.75 -73.8125 C 69.039062 -70.382812 73 -65.769531 75.625 -59.96875 C 78.25 -54.175781 79.5625 -47.695312 79.5625 -40.53125 C 79.5625 -39.425781 79.535156 -38.265625 79.484375 -37.046875 C 79.429688 -35.835938 79.304688 -34.78125 79.109375 -33.875 L 21.625 -33.875 C 22.132812 -29.132812 23.695312 -25.125 26.3125 -21.84375 C 28.9375 -18.570312 32.289062 -16.101562 36.375 -14.4375 C 40.457031 -12.78125 44.96875 -11.953125 49.90625 -11.953125 L 70.03125 -11.953125 L 70.03125 0 Z M 21.484375 -43.71875 L 65.484375 -43.71875 C 65.484375 -45.625 65.28125 -47.660156 64.875 -49.828125 C 64.476562 -52.003906 63.773438 -54.125 62.765625 -56.1875 C 61.753906 -58.257812 60.414062 -60.125 58.75 -61.78125 C 57.09375 -63.445312 55.03125 -64.785156 52.5625 -65.796875 C 50.09375 -66.804688 47.191406 -67.3125 43.859375 -67.3125 C 40.328125 -67.3125 37.222656 -66.628906 34.546875 -65.265625 C 31.878906 -63.898438 29.585938 -62.082031 27.671875 -59.8125 C 25.765625 -57.550781 24.304688 -55.007812 23.296875 -52.1875 C 22.285156 -49.363281 21.679688 -46.539062 21.484375 -43.71875 Z M 21.484375 -43.71875 "/></g></g></g><g fill="#4670b3" fill-opacity="1"><g transform="translate(202.315878, 173.649604)"><g><path d="M 10.59375 0 L 10.59375 -55.203125 C 10.59375 -62.054688 12.53125 -67.425781 16.40625 -71.3125 C 20.289062 -75.195312 25.660156 -77.140625 32.515625 -77.140625 L 48.40625 -77.140625 L 48.40625 -65.1875 L 35.09375 -65.1875 C 31.757812 -65.1875 29.160156 -64.226562 27.296875 -62.3125 C 25.429688 -60.394531 24.5 -57.722656 24.5 -54.296875 L 24.5 0 Z M 10.59375 0 "/></g></g></g><g fill="#4670b3" fill-opacity="1"><g transform="translate(252.530747, 173.649604)"><g><path d="M 15.734375 1.515625 C 13.003906 1.515625 10.65625 0.53125 8.6875 -1.4375 C 6.726562 -3.40625 5.75 -5.75 5.75 -8.46875 C 5.75 -11.1875 6.726562 -13.53125 8.6875 -15.5 C 10.65625 -17.46875 13.003906 -18.453125 15.734375 -18.453125 C 18.453125 -18.453125 20.796875 -17.46875 22.765625 -15.5 C 24.734375 -13.53125 25.71875 -11.1875 25.71875 -8.46875 C 25.71875 -6.65625 25.285156 -4.988281 24.421875 -3.46875 C 23.566406 -1.957031 22.382812 -0.75 20.875 0.15625 C 19.363281 1.0625 17.648438 1.515625 15.734375 1.515625 Z M 15.734375 1.515625 "/></g></g></g></g></g><g clip-path="url(#fae39f0e7b)"><path fill="#ffffff" d="M 109.308594 141.867188 C 109.402344 141.929688 109.507812 141.988281 109.613281 142.027344 C 110.148438 142.222656 110.695312 142.242188 111.242188 142.121094 C 111.78125 142 112.304688 141.808594 112.847656 141.699219 C 112.917969 141.6875 112.84375 142.761719 112.882812 142.84375 C 112.914062 142.90625 112.972656 142.949219 113.03125 142.980469 C 113.425781 143.183594 113.894531 142.972656 113.972656 142.539062 C 114.03125 142.1875 114.039062 141.832031 113.996094 141.480469 C 113.964844 141.257812 115.558594 140.933594 115.925781 140.53125 C 115.929688 140.527344 115.933594 140.53125 115.941406 140.527344 C 115.941406 140.527344 116.125 142.238281 116.097656 142.957031 C 116.074219 143.515625 116.023438 144.128906 115.835938 144.65625 C 115.683594 145.097656 115.59375 145.636719 115.28125 145.996094 C 115.054688 146.253906 111.777344 147.933594 110.339844 148.019531 C 110.179688 148.027344 109.320312 148.101562 109.308594 147.90625 C 109.277344 147.359375 109.25 146.808594 109.21875 146.257812 C 109.132812 144.675781 108.972656 141.472656 108.972656 141.453125 C 109.042969 141.628906 109.152344 141.765625 109.308594 141.867188 " fill-opacity="1" fill-rule="nonzero"/></g><g clip-path="url(#ef6492a630)"><path fill="#ffffff" d="M 110.4375 135 C 110.230469 135.054688 110.023438 135.109375 109.816406 135.164062 C 109.703125 135.195312 109.683594 135.214844 109.660156 135.105469 C 109.636719 135.011719 109.628906 134.394531 109.617188 134.195312 C 109.609375 133.996094 109.554688 133.832031 109.328125 133.847656 C 109.191406 133.859375 109.054688 133.871094 108.917969 133.894531 C 108.78125 133.917969 108.683594 133.964844 108.644531 134.105469 C 108.566406 134.375 108.585938 135.570312 108.460938 135.617188 C 108.140625 135.738281 107.46875 136 107.453125 136.003906 C 107.449219 135.992188 107.5 134.457031 107.769531 133.742188 C 107.90625 133.382812 108.191406 133.359375 108.523438 133.253906 C 108.769531 133.175781 109.023438 133.109375 109.28125 133.082031 C 109.660156 133.042969 110.007812 133.113281 110.15625 133.441406 C 110.273438 133.703125 110.34375 133.984375 110.394531 134.265625 C 110.414062 134.371094 110.546875 134.972656 110.4375 135 " fill-opacity="1" fill-rule="nonzero"/></g><path fill="#ffffff" d="M 107.820312 137.339844 C 107.574219 137.171875 107.304688 137.0625 106.996094 137.074219 C 106.992188 137.074219 106.988281 137.070312 106.980469 137.066406 C 107.234375 136.789062 107.507812 136.550781 107.863281 136.417969 C 109.03125 135.980469 110.230469 135.425781 111.503906 135.53125 C 112.824219 135.640625 114.105469 136.363281 114.777344 137.519531 C 115.117188 138.097656 115.382812 138.703125 115.601562 139.335938 C 115.683594 139.578125 115.503906 139.792969 115.320312 139.933594 C 114.878906 140.269531 114.324219 140.398438 113.808594 140.574219 C 113.851562 140.558594 113.277344 139.546875 113.21875 139.460938 C 113.144531 139.351562 113.0625 139.242188 112.941406 139.1875 C 112.824219 139.140625 112.695312 139.152344 112.570312 139.175781 C 112.417969 139.203125 111.929688 139.328125 112.050781 139.5625 C 112.160156 139.78125 112.277344 140 112.390625 140.21875 C 112.496094 140.425781 112.652344 140.664062 112.699219 140.894531 C 112.316406 141.054688 111.882812 141.144531 111.476562 141.234375 C 111.070312 141.328125 110.683594 141.414062 110.265625 141.351562 C 109.707031 141.265625 109.3125 140.96875 109.195312 140.335938 C 109.09375 139.78125 108.964844 139.238281 108.773438 138.707031 C 108.6875 138.480469 108.601562 138.25 108.484375 138.039062 C 108.324219 137.753906 108.089844 137.527344 107.820312 137.339844 " fill-opacity="1" fill-rule="nonzero"/><path fill="#ffffff" d="M 106.09375 140.007812 C 106.152344 139.535156 106.238281 139.0625 106.371094 138.605469 C 106.457031 138.296875 106.554688 137.671875 107.019531 137.847656 C 107.109375 137.882812 107.195312 137.929688 107.273438 137.988281 C 107.636719 138.269531 107.996094 138.714844 108.050781 139.183594 C 108.121094 139.769531 108.601562 147.660156 108.503906 147.75 C 108.492188 147.761719 108.476562 147.765625 108.457031 147.761719 C 107.898438 147.640625 107.019531 147.519531 106.738281 146.96875 C 106.648438 146.789062 106.578125 146.601562 106.527344 146.40625 C 106.503906 146.304688 106.480469 146.199219 106.421875 146.113281 C 106.339844 145.996094 106.203125 145.945312 106.082031 145.878906 C 105.898438 145.785156 105.902344 145.757812 105.910156 145.550781 C 105.917969 145.179688 105.917969 141.46875 106.09375 140.007812 " fill-opacity="1" fill-rule="nonzero"/><g clip-path="url(#2c7d66f02a)"><path fill="#ffffff" d="M 103.773438 138.085938 C 103.828125 137.492188 103.890625 136.878906 104.167969 136.351562 C 104.351562 136 104.640625 135.691406 105.019531 135.574219 C 105.34375 135.472656 105.703125 135.527344 106.015625 135.65625 C 106.332031 135.789062 106.605469 135.992188 106.875 136.203125 C 106.695312 136.402344 106.304688 136.832031 106.285156 136.835938 C 106.28125 136.835938 106.28125 136.835938 106.28125 136.835938 C 106.257812 136.839844 106.234375 136.828125 106.210938 136.816406 C 105.75 136.550781 105.191406 136.46875 104.945312 137.050781 C 104.695312 137.636719 104.40625 142.617188 104.488281 143.273438 C 104.554688 143.761719 104.742188 144.410156 105.292969 144.53125 C 105.277344 144.902344 105.261719 145.269531 105.246094 145.644531 C 105.246094 145.625 104.789062 145.5 104.75 145.488281 C 104.566406 145.421875 104.382812 145.34375 104.226562 145.21875 C 103.644531 144.765625 103.433594 143.925781 103.421875 143.21875 C 103.390625 141.503906 103.613281 139.789062 103.773438 138.085938 " fill-opacity="1" fill-rule="nonzero"/></g><path fill="#ffffff" d="M 111.84375 134.988281 C 111.714844 134.960938 111.585938 134.933594 111.457031 134.910156 C 111.382812 134.894531 111.3125 134.886719 111.226562 134.875 C 111.246094 134.609375 111.238281 134.351562 111.140625 134.101562 C 111.359375 134.207031 111.582031 134.308594 111.730469 134.511719 C 111.820312 134.628906 111.902344 134.757812 111.933594 134.90625 C 111.949219 134.984375 111.925781 135.007812 111.84375 134.988281 " fill-opacity="1" fill-rule="nonzero"/><g transform="matrix(1, 0, 0, 1, 19, 52)"><g clip-path="url(#c4535b834c)"><g fill="#e0efdc" fill-opacity="1"><g transform="translate(0.405372, 195.594746)"><g><path d="M 65.171875 -34.03125 C 66.484375 -34.03125 67.519531 -33.421875 68.28125 -32.203125 C 69.050781 -30.984375 69.4375 -29.304688 69.4375 -27.171875 C 69.4375 -23.097656 68.46875 -19.941406 66.53125 -17.703125 C 62.15625 -12.304688 57.398438 -7.878906 52.265625 -4.421875 C 47.128906 -0.960938 41.304688 0.765625 34.796875 0.765625 C 25.835938 0.765625 19.195312 -3.300781 14.875 -11.4375 C 10.550781 -19.582031 8.390625 -30.113281 8.390625 -43.03125 C 8.390625 -55.445312 9.992188 -69.585938 13.203125 -85.453125 C 16.410156 -101.328125 21.140625 -114.960938 27.390625 -126.359375 C 33.648438 -137.753906 41.101562 -143.453125 49.75 -143.453125 C 54.632812 -143.453125 58.472656 -141.1875 61.265625 -136.65625 C 64.066406 -132.132812 65.46875 -125.648438 65.46875 -117.203125 C 65.46875 -105.097656 62.109375 -91.054688 55.390625 -75.078125 C 48.679688 -59.109375 39.578125 -43.289062 28.078125 -27.625 C 28.785156 -23.445312 29.953125 -20.46875 31.578125 -18.6875 C 33.210938 -16.914062 35.351562 -16.03125 38 -16.03125 C 42.164062 -16.03125 45.828125 -17.222656 48.984375 -19.609375 C 52.140625 -22.003906 56.160156 -26.097656 61.046875 -31.890625 C 62.265625 -33.316406 63.640625 -34.03125 65.171875 -34.03125 Z M 46.390625 -128.34375 C 44.054688 -128.34375 41.410156 -124.117188 38.453125 -115.671875 C 35.503906 -107.234375 32.910156 -96.753906 30.671875 -84.234375 C 28.429688 -71.722656 27.210938 -59.71875 27.015625 -48.21875 C 34.234375 -60.125 39.976562 -72.050781 44.25 -84 C 48.53125 -95.957031 50.671875 -106.875 50.671875 -116.75 C 50.671875 -124.476562 49.242188 -128.34375 46.390625 -128.34375 Z M 46.390625 -128.34375 "/></g></g></g></g></g></svg>