<svg xmlns="http://www.w3.org/2000/svg" xmlns:xlink="http://www.w3.org/1999/xlink" width="500" zoomAndPan="magnify" viewBox="0 0 375 374.999991" height="500" preserveAspectRatio="xMidYMid meet" version="1.0"><defs><g/><clipPath id="08d0d06c0a"><rect x="0" width="284" y="0" height="242"/></clipPath><clipPath id="e2bcedf602"><path d="M 108.851562 140.484375 L 116.097656 140.484375 L 116.097656 148.015625 L 108.851562 148.015625 Z M 108.851562 140.484375 " clip-rule="nonzero"/></clipPath><clipPath id="d24b7acb8e"><path d="M 107 133.015625 L 111 133.015625 L 111 137 L 107 137 Z M 107 133.015625 " clip-rule="nonzero"/></clipPath><clipPath id="bebe874359"><path d="M 103.382812 135 L 107 135 L 107 146 L 103.382812 146 Z M 103.382812 135 " clip-rule="nonzero"/></clipPath><clipPath id="0b5c737f7d"><rect x="0" width="75" y="0" height="268"/></clipPath></defs><rect x="-37.5" width="450" fill="#ffffff" y="-37.499999" height="449.999989" fill-opacity="1"/><rect x="-37.5" width="450" fill="#ffffff" y="-37.499999" height="449.999989" fill-opacity="1"/><g transform="matrix(1, 0, 0, 1, 91, 66)"><g clip-path="url(#08d0d06c0a)"><g fill="#e0efdc" fill-opacity="1"><g transform="translate(0.397679, 173.649589)"><g><path d="M 10 0 L 10 -78.175781 L 26.148438 -78.175781 L 26.148438 1.039062 L 10 1.039062 Z M 12.082031 0 L 11.042969 0 L 11.042969 -1.039062 L 25.109375 -1.039062 L 25.109375 0 L 24.066406 0 L 24.066406 -77.136719 L 25.109375 -77.136719 L 25.109375 -76.097656 L 11.042969 -76.097656 L 11.042969 -77.136719 L 12.082031 -77.136719 Z M 18.148438 -88.347656 C 15.34375 -88.347656 12.902344 -89.382812 10.835938 -91.453125 C 8.765625 -93.519531 7.734375 -95.957031 7.734375 -98.765625 C 7.734375 -101.574219 8.765625 -104.011719 10.835938 -106.082031 C 12.902344 -108.148438 15.34375 -109.183594 18.148438 -109.183594 C 20.957031 -109.183594 23.394531 -108.148438 25.464844 -106.082031 C 27.535156 -104.011719 28.566406 -101.574219 28.566406 -98.765625 C 28.566406 -95.957031 27.535156 -93.519531 25.464844 -91.453125 C 23.394531 -89.382812 20.957031 -88.347656 18.148438 -88.347656 Z M 18.148438 -90.429688 C 20.382812 -90.429688 22.332031 -91.261719 23.996094 -92.921875 C 25.65625 -94.585938 26.488281 -96.53125 26.488281 -98.765625 C 26.488281 -101 25.65625 -102.949219 23.996094 -104.609375 C 22.332031 -106.273438 20.382812 -107.105469 18.148438 -107.105469 C 15.917969 -107.105469 13.96875 -106.273438 12.304688 -104.609375 C 10.644531 -102.949219 9.8125 -101 9.8125 -98.765625 C 9.8125 -96.53125 10.644531 -94.585938 12.304688 -92.921875 C 13.96875 -91.261719 15.917969 -90.429688 18.148438 -90.429688 Z M 18.148438 -90.429688 "/></g></g></g><g fill="#e0efdc" fill-opacity="1"><g transform="translate(36.395078, 173.649589)"><g><path d="M 8.941406 0 L 8.941406 -12.988281 L 46.886719 -12.988281 C 49.117188 -12.988281 51.03125 -13.46875 52.628906 -14.429688 C 54.226562 -15.386719 55.4375 -16.640625 56.253906 -18.183594 C 57.082031 -19.746094 57.492188 -21.398438 57.492188 -23.140625 C 57.492188 -24.789062 57.128906 -26.316406 56.398438 -27.730469 C 55.6875 -29.113281 54.585938 -30.230469 53.097656 -31.089844 C 51.597656 -31.953125 49.777344 -32.386719 47.644531 -32.386719 L 32.066406 -32.386719 C 26.976562 -32.386719 22.519531 -33.25 18.703125 -34.972656 C 14.835938 -36.722656 11.8125 -39.296875 9.636719 -42.695312 C 7.460938 -46.09375 6.371094 -50.214844 6.371094 -55.054688 C 6.371094 -59.171875 7.375 -62.976562 9.382812 -66.464844 C 11.390625 -69.945312 14.183594 -72.769531 17.765625 -74.925781 C 21.359375 -77.09375 25.46875 -78.175781 30.097656 -78.175781 L 66.683594 -78.175781 L 66.683594 -64.148438 L 31.460938 -64.148438 C 28.632812 -64.148438 26.414062 -63.300781 24.804688 -61.601562 C 23.179688 -59.882812 22.367188 -57.855469 22.367188 -55.507812 C 22.367188 -53.273438 23.199219 -51.328125 24.859375 -49.664062 C 26.523438 -48.003906 28.925781 -47.171875 32.066406 -47.171875 L 46.886719 -47.171875 C 52.585938 -47.171875 57.398438 -46.257812 61.316406 -44.425781 C 65.292969 -42.570312 68.320312 -39.886719 70.394531 -36.375 C 72.457031 -32.882812 73.488281 -28.625 73.488281 -23.59375 C 73.488281 -19.277344 72.4375 -15.253906 70.328125 -11.515625 C 68.226562 -7.777344 65.308594 -4.753906 61.578125 -2.445312 C 57.828125 -0.121094 53.488281 1.039062 48.550781 1.039062 L 8.941406 1.039062 Z M 11.023438 0 L 9.984375 0 L 9.984375 -1.039062 L 48.550781 -1.039062 C 53.09375 -1.039062 57.070312 -2.097656 60.480469 -4.210938 C 63.910156 -6.335938 66.589844 -9.109375 68.519531 -12.535156 C 70.445312 -15.957031 71.410156 -19.644531 71.410156 -23.59375 C 71.410156 -28.246094 70.472656 -32.152344 68.605469 -35.316406 C 66.746094 -38.460938 64.023438 -40.867188 60.4375 -42.542969 C 56.796875 -44.242188 52.28125 -45.089844 46.886719 -45.089844 L 32.066406 -45.089844 C 28.351562 -45.089844 25.457031 -46.125 23.390625 -48.195312 C 21.320312 -50.261719 20.285156 -52.699219 20.285156 -55.507812 C 20.285156 -58.40625 21.289062 -60.914062 23.292969 -63.03125 C 25.3125 -65.164062 28.035156 -66.230469 31.460938 -66.230469 L 65.644531 -66.230469 L 65.644531 -65.1875 L 64.601562 -65.1875 L 64.601562 -77.136719 L 65.644531 -77.136719 L 65.644531 -76.097656 L 30.097656 -76.097656 C 25.855469 -76.097656 22.101562 -75.113281 18.839844 -73.148438 C 15.5625 -71.171875 13.011719 -68.597656 11.1875 -65.425781 C 9.363281 -62.257812 8.453125 -58.800781 8.453125 -55.054688 C 8.453125 -50.621094 9.429688 -46.875 11.386719 -43.820312 C 13.34375 -40.765625 16.070312 -38.449219 19.5625 -36.871094 C 23.105469 -35.265625 27.273438 -34.464844 32.066406 -34.464844 L 47.644531 -34.464844 C 50.148438 -34.464844 52.3125 -33.941406 54.136719 -32.890625 C 55.976562 -31.832031 57.347656 -30.429688 58.246094 -28.683594 C 59.132812 -26.972656 59.574219 -25.125 59.574219 -23.140625 C 59.574219 -21.054688 59.078125 -19.074219 58.089844 -17.210938 C 57.09375 -15.324219 55.628906 -13.804688 53.699219 -12.644531 C 51.769531 -11.488281 49.5 -10.910156 46.886719 -10.910156 L 9.984375 -10.910156 L 9.984375 -11.949219 L 11.023438 -11.949219 Z M 11.023438 0 "/></g></g></g><g fill="#e0efdc" fill-opacity="1"><g transform="translate(116.10361, 173.649589)"><g><path d="M 50.214844 1.039062 C 41.585938 1.039062 33.921875 -0.582031 27.226562 -3.828125 C 20.492188 -7.089844 15.234375 -11.703125 11.449219 -17.667969 C 7.660156 -23.636719 5.765625 -30.601562 5.765625 -38.570312 C 5.765625 -46.398438 7.367188 -53.441406 10.570312 -59.6875 C 13.78125 -65.957031 18.238281 -70.90625 23.945312 -74.535156 C 29.660156 -78.175781 36.300781 -79.992188 43.863281 -79.992188 C 52.035156 -79.992188 58.851562 -78.222656 64.316406 -74.683594 C 69.78125 -71.144531 73.867188 -66.382812 76.574219 -60.398438 C 79.257812 -54.464844 80.597656 -47.84375 80.597656 -40.535156 C 80.597656 -39.410156 80.570312 -38.238281 80.519531 -37.011719 C 80.46875 -35.742188 80.335938 -34.621094 80.121094 -33.65625 L 79.9375 -32.839844 L 21.628906 -32.839844 L 21.628906 -33.878906 L 22.664062 -33.988281 C 23.144531 -29.453125 24.632812 -25.625 27.128906 -22.503906 C 29.636719 -19.367188 32.851562 -17.003906 36.769531 -15.40625 C 40.726562 -13.796875 45.109375 -12.988281 49.914062 -12.988281 L 71.070312 -12.988281 L 71.070312 1.039062 Z M 50.214844 -1.039062 L 70.027344 -1.039062 L 70.027344 0 L 68.988281 0 L 68.988281 -11.949219 L 70.027344 -11.949219 L 70.027344 -10.910156 L 49.914062 -10.910156 C 44.835938 -10.910156 40.191406 -11.765625 35.984375 -13.480469 C 31.734375 -15.214844 28.238281 -17.789062 25.503906 -21.207031 C 22.757812 -24.640625 21.121094 -28.828125 20.59375 -33.769531 L 20.472656 -34.921875 L 79.105469 -34.921875 L 79.105469 -33.878906 L 78.089844 -34.105469 C 78.277344 -34.953125 78.394531 -35.949219 78.441406 -37.101562 C 78.492188 -38.296875 78.519531 -39.441406 78.519531 -40.535156 C 78.519531 -47.542969 77.238281 -53.878906 74.679688 -59.542969 C 72.140625 -65.15625 68.308594 -69.621094 63.1875 -72.9375 C 58.066406 -76.253906 51.625 -77.914062 43.863281 -77.914062 C 36.703125 -77.914062 30.4375 -76.203125 25.0625 -72.78125 C 19.675781 -69.355469 15.460938 -64.671875 12.421875 -58.742188 C 9.371094 -52.789062 7.847656 -46.066406 7.847656 -38.570312 C 7.847656 -31.007812 9.632812 -24.410156 13.203125 -18.78125 C 16.78125 -13.152344 21.753906 -8.789062 28.132812 -5.699219 C 34.542969 -2.59375 41.902344 -1.039062 50.214844 -1.039062 Z M 21.476562 -44.75 L 65.492188 -44.75 L 65.492188 -43.710938 L 64.453125 -43.710938 C 64.453125 -45.5625 64.253906 -47.542969 63.863281 -49.648438 C 63.476562 -51.722656 62.800781 -53.75 61.835938 -55.734375 C 60.875 -57.695312 59.605469 -59.46875 58.027344 -61.050781 C 56.460938 -62.617188 54.507812 -63.875 52.167969 -64.832031 C 49.820312 -65.789062 47.054688 -66.265625 43.863281 -66.265625 C 40.5 -66.265625 37.554688 -65.625 35.03125 -64.339844 C 32.484375 -63.039062 30.300781 -61.308594 28.472656 -59.148438 C 26.636719 -56.976562 25.238281 -54.535156 24.273438 -51.832031 C 23.296875 -49.097656 22.710938 -46.367188 22.515625 -43.636719 L 21.476562 -43.710938 Z M 21.476562 -42.671875 L 20.359375 -42.671875 L 20.441406 -43.785156 C 20.648438 -46.703125 21.273438 -49.617188 22.3125 -52.53125 C 23.363281 -55.472656 24.886719 -58.125 26.882812 -60.492188 C 28.890625 -62.867188 31.292969 -64.765625 34.089844 -66.191406 C 36.910156 -67.628906 40.167969 -68.347656 43.863281 -68.347656 C 47.328125 -68.347656 50.355469 -67.816406 52.953125 -66.757812 C 55.550781 -65.695312 57.734375 -64.285156 59.496094 -62.519531 C 61.242188 -60.777344 62.644531 -58.816406 63.703125 -56.644531 C 64.753906 -54.492188 65.488281 -52.289062 65.910156 -50.027344 C 66.324219 -47.796875 66.53125 -45.691406 66.53125 -43.710938 L 66.53125 -42.671875 Z M 21.476562 -42.671875 "/></g></g></g><g fill="#e0efdc" fill-opacity="1"><g transform="translate(202.315878, 173.649589)"><g><path d="M 9.546875 0 L 9.546875 -55.207031 C 9.546875 -62.351562 11.589844 -67.964844 15.675781 -72.050781 C 19.761719 -76.136719 25.375 -78.175781 32.519531 -78.175781 L 49.441406 -78.175781 L 49.441406 -64.148438 L 35.089844 -64.148438 C 32.054688 -64.148438 29.707031 -63.296875 28.046875 -61.589844 C 26.375 -59.875 25.542969 -57.445312 25.542969 -54.300781 L 25.542969 1.039062 L 9.546875 1.039062 Z M 11.628906 0 L 10.585938 0 L 10.585938 -1.039062 L 24.503906 -1.039062 L 24.503906 0 L 23.460938 0 L 23.460938 -54.300781 C 23.460938 -58.007812 24.492188 -60.921875 26.554688 -63.039062 C 28.625 -65.167969 31.46875 -66.230469 35.089844 -66.230469 L 48.398438 -66.230469 L 48.398438 -65.1875 L 47.359375 -65.1875 L 47.359375 -77.136719 L 48.398438 -77.136719 L 48.398438 -76.097656 L 32.519531 -76.097656 C 25.949219 -76.097656 20.824219 -74.257812 17.144531 -70.578125 C 13.46875 -66.898438 11.628906 -61.777344 11.628906 -55.207031 Z M 11.628906 0 "/></g></g></g><g fill="#e0efdc" fill-opacity="1"><g transform="translate(252.530747, 173.649589)"><g><path d="M 15.730469 2.550781 C 12.71875 2.550781 10.132812 1.46875 7.960938 -0.703125 C 5.792969 -2.871094 4.707031 -5.460938 4.707031 -8.46875 C 4.707031 -11.480469 5.792969 -14.070312 7.960938 -16.238281 C 10.132812 -18.40625 12.71875 -19.492188 15.730469 -19.492188 C 18.738281 -19.492188 21.328125 -18.40625 23.5 -16.238281 C 25.667969 -14.070312 26.753906 -11.480469 26.753906 -8.46875 C 26.753906 -6.472656 26.277344 -4.636719 25.332031 -2.964844 C 24.382812 -1.292969 23.078125 0.0429688 21.40625 1.042969 C 19.730469 2.050781 17.839844 2.550781 15.730469 2.550781 Z M 15.730469 0.472656 C 17.453125 0.472656 18.988281 0.0664062 20.335938 -0.742188 C 21.695312 -1.554688 22.753906 -2.636719 23.523438 -3.992188 C 24.289062 -5.34375 24.671875 -6.835938 24.671875 -8.46875 C 24.671875 -10.90625 23.792969 -13.003906 22.027344 -14.769531 C 20.265625 -16.53125 18.164062 -17.414062 15.730469 -17.414062 C 13.292969 -17.414062 11.195312 -16.53125 9.433594 -14.769531 C 7.667969 -13.003906 6.789062 -10.90625 6.789062 -8.46875 C 6.789062 -6.035156 7.667969 -3.933594 9.433594 -2.171875 C 11.195312 -0.410156 13.292969 0.472656 15.730469 0.472656 Z M 15.730469 0.472656 "/></g></g></g><g fill="#4670b3" fill-opacity="1"><g transform="translate(0.397679, 173.649589)"><g><path d="M 11.046875 0 L 11.046875 -77.140625 L 25.109375 -77.140625 L 25.109375 0 Z M 18.15625 -89.390625 C 15.632812 -89.390625 13.441406 -90.320312 11.578125 -92.1875 C 9.710938 -94.0625 8.78125 -96.257812 8.78125 -98.78125 C 8.78125 -101.300781 9.710938 -103.492188 11.578125 -105.359375 C 13.441406 -107.222656 15.632812 -108.15625 18.15625 -108.15625 C 20.675781 -108.15625 22.867188 -107.222656 24.734375 -105.359375 C 26.597656 -103.492188 27.53125 -101.300781 27.53125 -98.78125 C 27.53125 -96.257812 26.597656 -94.0625 24.734375 -92.1875 C 22.867188 -90.320312 20.675781 -89.390625 18.15625 -89.390625 Z M 18.15625 -89.390625 "/></g></g></g><g fill="#4670b3" fill-opacity="1"><g transform="translate(36.395078, 173.649589)"><g><path d="M 9.984375 0 L 9.984375 -11.953125 L 46.890625 -11.953125 C 49.304688 -11.953125 51.394531 -12.476562 53.15625 -13.53125 C 54.925781 -14.59375 56.265625 -15.976562 57.171875 -17.6875 C 58.078125 -19.40625 58.53125 -21.222656 58.53125 -23.140625 C 58.53125 -24.953125 58.125 -26.640625 57.3125 -28.203125 C 56.507812 -29.765625 55.273438 -31.023438 53.609375 -31.984375 C 51.953125 -32.941406 49.960938 -33.421875 47.640625 -33.421875 L 32.0625 -33.421875 C 27.125 -33.421875 22.8125 -34.253906 19.125 -35.921875 C 15.445312 -37.585938 12.570312 -40.03125 10.5 -43.25 C 8.4375 -46.476562 7.40625 -50.414062 7.40625 -55.0625 C 7.40625 -58.988281 8.363281 -62.613281 10.28125 -65.9375 C 12.195312 -69.269531 14.867188 -71.96875 18.296875 -74.03125 C 21.722656 -76.101562 25.65625 -77.140625 30.09375 -77.140625 L 65.640625 -77.140625 L 65.640625 -65.1875 L 31.453125 -65.1875 C 28.328125 -65.1875 25.859375 -64.226562 24.046875 -62.3125 C 22.234375 -60.394531 21.328125 -58.128906 21.328125 -55.515625 C 21.328125 -52.992188 22.257812 -50.796875 24.125 -48.921875 C 25.988281 -47.054688 28.632812 -46.125 32.0625 -46.125 L 46.890625 -46.125 C 52.429688 -46.125 57.09375 -45.242188 60.875 -43.484375 C 64.65625 -41.722656 67.53125 -39.175781 69.5 -35.84375 C 71.46875 -32.519531 72.453125 -28.4375 72.453125 -23.59375 C 72.453125 -19.457031 71.441406 -15.597656 69.421875 -12.015625 C 67.410156 -8.441406 64.613281 -5.546875 61.03125 -3.328125 C 57.445312 -1.109375 53.285156 0 48.546875 0 Z M 9.984375 0 "/></g></g></g><g fill="#4670b3" fill-opacity="1"><g transform="translate(116.10361, 173.649589)"><g><path d="M 50.21875 0 C 41.75 0 34.234375 -1.585938 27.671875 -4.765625 C 21.117188 -7.941406 16.003906 -12.425781 12.328125 -18.21875 C 8.648438 -24.019531 6.8125 -30.800781 6.8125 -38.5625 C 6.8125 -46.226562 8.375 -53.109375 11.5 -59.203125 C 14.625 -65.304688 18.957031 -70.125 24.5 -73.65625 C 30.050781 -77.1875 36.503906 -78.953125 43.859375 -78.953125 C 51.828125 -78.953125 58.457031 -77.238281 63.75 -73.8125 C 69.039062 -70.382812 73 -65.769531 75.625 -59.96875 C 78.25 -54.175781 79.5625 -47.695312 79.5625 -40.53125 C 79.5625 -39.425781 79.535156 -38.265625 79.484375 -37.046875 C 79.429688 -35.835938 79.304688 -34.78125 79.109375 -33.875 L 21.625 -33.875 C 22.132812 -29.132812 23.695312 -25.125 26.3125 -21.84375 C 28.9375 -18.570312 32.289062 -16.101562 36.375 -14.4375 C 40.457031 -12.78125 44.96875 -11.953125 49.90625 -11.953125 L 70.03125 -11.953125 L 70.03125 0 Z M 21.484375 -43.71875 L 65.484375 -43.71875 C 65.484375 -45.625 65.28125 -47.660156 64.875 -49.828125 C 64.476562 -52.003906 63.773438 -54.125 62.765625 -56.1875 C 61.753906 -58.257812 60.414062 -60.125 58.75 -61.78125 C 57.09375 -63.445312 55.03125 -64.785156 52.5625 -65.796875 C 50.09375 -66.804688 47.191406 -67.3125 43.859375 -67.3125 C 40.328125 -67.3125 37.222656 -66.628906 34.546875 -65.265625 C 31.878906 -63.898438 29.585938 -62.082031 27.671875 -59.8125 C 25.765625 -57.550781 24.304688 -55.007812 23.296875 -52.1875 C 22.285156 -49.363281 21.679688 -46.539062 21.484375 -43.71875 Z M 21.484375 -43.71875 "/></g></g></g><g fill="#4670b3" fill-opacity="1"><g transform="translate(202.315878, 173.649589)"><g><path d="M 10.59375 0 L 10.59375 -55.203125 C 10.59375 -62.054688 12.53125 -67.425781 16.40625 -71.3125 C 20.289062 -75.195312 25.660156 -77.140625 32.515625 -77.140625 L 48.40625 -77.140625 L 48.40625 -65.1875 L 35.09375 -65.1875 C 31.757812 -65.1875 29.160156 -64.226562 27.296875 -62.3125 C 25.429688 -60.394531 24.5 -57.722656 24.5 -54.296875 L 24.5 0 Z M 10.59375 0 "/></g></g></g><g fill="#4670b3" fill-opacity="1"><g transform="translate(252.530747, 173.649589)"><g><path d="M 15.734375 1.515625 C 13.003906 1.515625 10.65625 0.53125 8.6875 -1.4375 C 6.726562 -3.40625 5.75 -5.75 5.75 -8.46875 C 5.75 -11.1875 6.726562 -13.53125 8.6875 -15.5 C 10.65625 -17.46875 13.003906 -18.453125 15.734375 -18.453125 C 18.453125 -18.453125 20.796875 -17.46875 22.765625 -15.5 C 24.734375 -13.53125 25.71875 -11.1875 25.71875 -8.46875 C 25.71875 -6.65625 25.285156 -4.988281 24.421875 -3.46875 C 23.566406 -1.957031 22.382812 -0.75 20.875 0.15625 C 19.363281 1.0625 17.648438 1.515625 15.734375 1.515625 Z M 15.734375 1.515625 "/></g></g></g></g></g><g clip-path="url(#e2bcedf602)"><path fill="#ffffff" d="M 109.308594 141.867188 C 109.402344 141.929688 109.507812 141.988281 109.613281 142.027344 C 110.148438 142.222656 110.695312 142.242188 111.242188 142.121094 C 111.78125 142 112.304688 141.808594 112.847656 141.699219 C 112.917969 141.6875 112.84375 142.761719 112.882812 142.84375 C 112.914062 142.90625 112.972656 142.949219 113.03125 142.980469 C 113.425781 143.183594 113.894531 142.972656 113.972656 142.539062 C 114.03125 142.1875 114.039062 141.832031 113.996094 141.480469 C 113.964844 141.257812 115.558594 140.933594 115.925781 140.53125 C 115.929688 140.527344 115.933594 140.53125 115.941406 140.527344 C 115.941406 140.527344 116.125 142.238281 116.097656 142.957031 C 116.074219 143.515625 116.023438 144.128906 115.835938 144.65625 C 115.683594 145.097656 115.59375 145.636719 115.28125 145.996094 C 115.054688 146.253906 111.777344 147.933594 110.339844 148.019531 C 110.179688 148.027344 109.320312 148.101562 109.308594 147.910156 C 109.277344 147.359375 109.25 146.808594 109.21875 146.257812 C 109.132812 144.675781 108.972656 141.472656 108.972656 141.453125 C 109.042969 141.628906 109.152344 141.765625 109.308594 141.867188 " fill-opacity="1" fill-rule="nonzero"/></g><g clip-path="url(#d24b7acb8e)"><path fill="#ffffff" d="M 110.4375 135 C 110.230469 135.054688 110.023438 135.109375 109.816406 135.164062 C 109.703125 135.195312 109.683594 135.214844 109.660156 135.105469 C 109.636719 135.011719 109.628906 134.394531 109.617188 134.195312 C 109.609375 133.996094 109.554688 133.832031 109.328125 133.847656 C 109.191406 133.859375 109.054688 133.871094 108.917969 133.894531 C 108.78125 133.917969 108.683594 133.964844 108.644531 134.105469 C 108.566406 134.375 108.585938 135.570312 108.460938 135.617188 C 108.140625 135.738281 107.46875 136 107.453125 136.003906 C 107.449219 135.992188 107.5 134.457031 107.769531 133.742188 C 107.90625 133.382812 108.191406 133.359375 108.523438 133.253906 C 108.769531 133.175781 109.023438 133.109375 109.28125 133.082031 C 109.660156 133.042969 110.007812 133.113281 110.15625 133.441406 C 110.273438 133.703125 110.34375 133.984375 110.394531 134.265625 C 110.414062 134.371094 110.546875 134.972656 110.4375 135 " fill-opacity="1" fill-rule="nonzero"/></g><path fill="#ffffff" d="M 107.820312 137.339844 C 107.574219 137.171875 107.304688 137.0625 106.996094 137.074219 C 106.992188 137.074219 106.988281 137.070312 106.980469 137.066406 C 107.234375 136.789062 107.507812 136.550781 107.863281 136.417969 C 109.03125 135.980469 110.230469 135.425781 111.503906 135.53125 C 112.824219 135.640625 114.105469 136.363281 114.777344 137.519531 C 115.117188 138.097656 115.382812 138.703125 115.601562 139.335938 C 115.683594 139.578125 115.503906 139.792969 115.320312 139.933594 C 114.878906 140.269531 114.324219 140.398438 113.808594 140.574219 C 113.851562 140.558594 113.277344 139.546875 113.21875 139.460938 C 113.144531 139.351562 113.0625 139.242188 112.941406 139.1875 C 112.824219 139.140625 112.695312 139.152344 112.570312 139.175781 C 112.417969 139.203125 111.929688 139.328125 112.050781 139.5625 C 112.160156 139.78125 112.277344 140 112.390625 140.21875 C 112.496094 140.425781 112.652344 140.664062 112.699219 140.894531 C 112.316406 141.054688 111.882812 141.144531 111.476562 141.234375 C 111.070312 141.328125 110.683594 141.414062 110.265625 141.351562 C 109.707031 141.265625 109.3125 140.96875 109.195312 140.335938 C 109.09375 139.78125 108.964844 139.238281 108.773438 138.707031 C 108.6875 138.480469 108.601562 138.25 108.484375 138.039062 C 108.324219 137.753906 108.089844 137.527344 107.820312 137.339844 " fill-opacity="1" fill-rule="nonzero"/><path fill="#ffffff" d="M 106.09375 140.007812 C 106.152344 139.535156 106.238281 139.0625 106.371094 138.605469 C 106.457031 138.296875 106.554688 137.671875 107.019531 137.847656 C 107.109375 137.882812 107.195312 137.929688 107.273438 137.988281 C 107.636719 138.269531 107.996094 138.714844 108.050781 139.183594 C 108.121094 139.769531 108.601562 147.660156 108.503906 147.75 C 108.492188 147.761719 108.476562 147.765625 108.457031 147.761719 C 107.898438 147.640625 107.019531 147.519531 106.738281 146.96875 C 106.648438 146.789062 106.578125 146.601562 106.527344 146.40625 C 106.503906 146.304688 106.480469 146.199219 106.421875 146.113281 C 106.339844 145.996094 106.203125 145.945312 106.082031 145.878906 C 105.898438 145.785156 105.902344 145.757812 105.910156 145.550781 C 105.917969 145.179688 105.917969 141.46875 106.09375 140.007812 " fill-opacity="1" fill-rule="nonzero"/><g clip-path="url(#bebe874359)"><path fill="#ffffff" d="M 103.773438 138.085938 C 103.828125 137.492188 103.890625 136.878906 104.167969 136.351562 C 104.351562 136 104.640625 135.691406 105.019531 135.574219 C 105.34375 135.472656 105.703125 135.527344 106.015625 135.65625 C 106.332031 135.789062 106.605469 135.992188 106.875 136.203125 C 106.695312 136.402344 106.304688 136.832031 106.285156 136.835938 C 106.28125 136.835938 106.28125 136.835938 106.28125 136.835938 C 106.257812 136.839844 106.234375 136.828125 106.210938 136.816406 C 105.75 136.550781 105.191406 136.46875 104.945312 137.050781 C 104.695312 137.636719 104.40625 142.617188 104.488281 143.273438 C 104.554688 143.761719 104.742188 144.410156 105.292969 144.53125 C 105.277344 144.902344 105.261719 145.269531 105.246094 145.644531 C 105.246094 145.625 104.789062 145.5 104.75 145.488281 C 104.566406 145.421875 104.382812 145.34375 104.226562 145.21875 C 103.644531 144.765625 103.433594 143.925781 103.421875 143.21875 C 103.390625 141.503906 103.613281 139.789062 103.773438 138.085938 " fill-opacity="1" fill-rule="nonzero"/></g><path fill="#ffffff" d="M 111.84375 134.988281 C 111.714844 134.960938 111.585938 134.933594 111.457031 134.910156 C 111.382812 134.894531 111.3125 134.886719 111.226562 134.875 C 111.246094 134.609375 111.238281 134.351562 111.140625 134.101562 C 111.359375 134.207031 111.582031 134.308594 111.730469 134.511719 C 111.820312 134.628906 111.902344 134.757812 111.933594 134.90625 C 111.949219 134.984375 111.925781 135.007812 111.84375 134.988281 " fill-opacity="1" fill-rule="nonzero"/><g transform="matrix(1, 0, 0, 1, 19, 52)"><g clip-path="url(#0b5c737f7d)"><g fill="#4670b3" fill-opacity="1"><g transform="translate(0.405372, 195.594739)"><g><path d="M 65.164062 -35.082031 C 66.875 -35.082031 68.214844 -34.308594 69.183594 -32.757812 C 70.054688 -31.367188 70.488281 -29.503906 70.488281 -27.164062 C 70.488281 -22.835938 69.4375 -19.453125 67.332031 -17.015625 L 66.539062 -17.703125 L 67.355469 -17.042969 C 62.914062 -11.570312 58.082031 -7.074219 52.855469 -3.554688 C 47.539062 0.0234375 41.519531 1.8125 34.796875 1.8125 C 25.421875 1.8125 18.472656 -2.441406 13.953125 -10.953125 C 9.546875 -19.246094 7.34375 -29.941406 7.34375 -43.035156 C 7.34375 -55.519531 8.953125 -69.730469 12.171875 -85.671875 C 15.398438 -101.648438 20.164062 -115.378906 26.472656 -126.867188 C 32.929688 -138.625 40.691406 -144.503906 49.75 -144.503906 C 55.023438 -144.503906 59.164062 -142.074219 62.167969 -137.214844 C 65.070312 -132.519531 66.519531 -125.847656 66.519531 -117.207031 C 66.519531 -104.957031 63.136719 -90.78125 56.367188 -74.679688 C 49.617188 -58.628906 40.472656 -42.738281 28.925781 -27.003906 L 28.082031 -27.621094 L 29.113281 -27.800781 C 29.792969 -23.832031 30.875 -21.03125 32.363281 -19.402344 C 33.785156 -17.851562 35.664062 -17.074219 38 -17.074219 C 41.9375 -17.074219 45.386719 -18.199219 48.355469 -20.445312 C 51.445312 -22.789062 55.410156 -26.832031 60.242188 -32.570312 C 61.675781 -34.246094 63.316406 -35.082031 65.164062 -35.082031 Z M 65.164062 -32.984375 C 63.960938 -32.984375 62.855469 -32.394531 61.847656 -31.21875 C 56.914062 -25.359375 52.839844 -21.210938 49.621094 -18.773438 C 46.28125 -16.242188 42.40625 -14.976562 38 -14.976562 C 35.046875 -14.976562 32.652344 -15.980469 30.816406 -17.988281 C 29.050781 -19.917969 27.792969 -23.070312 27.046875 -27.445312 L 26.972656 -27.886719 L 27.234375 -28.242188 C 38.683594 -43.84375 47.746094 -59.59375 54.429688 -75.492188 C 61.089844 -91.335938 64.421875 -105.238281 64.421875 -117.207031 C 64.421875 -125.453125 63.074219 -131.753906 60.382812 -136.113281 C 57.789062 -140.308594 54.246094 -142.40625 49.75 -142.40625 C 41.515625 -142.40625 34.371094 -136.890625 28.3125 -125.859375 C 22.109375 -114.554688 17.414062 -101.023438 14.230469 -85.253906 C 11.039062 -69.453125 9.441406 -55.378906 9.441406 -43.035156 C 9.441406 -30.289062 11.5625 -19.921875 15.804688 -11.9375 C 19.933594 -4.171875 26.261719 -0.285156 34.796875 -0.285156 C 41.09375 -0.285156 46.722656 -1.957031 51.683594 -5.296875 C 56.734375 -8.695312 61.414062 -13.054688 65.722656 -18.363281 L 65.734375 -18.375 L 65.746094 -18.390625 C 67.507812 -20.429688 68.390625 -23.355469 68.390625 -27.164062 C 68.390625 -29.101562 68.0625 -30.59375 67.402344 -31.644531 C 66.847656 -32.539062 66.101562 -32.984375 65.164062 -32.984375 Z M 46.394531 -127.296875 C 45.609375 -127.296875 44.660156 -126.40625 43.542969 -124.621094 C 42.261719 -122.578125 40.898438 -119.480469 39.449219 -115.332031 C 36.515625 -106.941406 33.9375 -96.515625 31.707031 -84.058594 C 29.480469 -71.597656 28.265625 -59.648438 28.0625 -48.207031 L 27.011719 -48.226562 L 26.117188 -48.769531 C 33.300781 -60.613281 39.019531 -72.476562 43.269531 -84.367188 C 47.5 -96.207031 49.617188 -107 49.617188 -116.75 C 49.617188 -120.488281 49.285156 -123.269531 48.613281 -125.085938 C 48.070312 -126.558594 47.332031 -127.296875 46.394531 -127.296875 Z M 46.394531 -129.394531 C 49.941406 -129.394531 51.714844 -125.179688 51.714844 -116.75 C 51.714844 -106.757812 49.558594 -95.730469 45.246094 -83.660156 C 40.949219 -71.636719 35.167969 -59.644531 27.910156 -47.679688 L 25.894531 -44.359375 L 25.964844 -48.242188 C 26.167969 -59.796875 27.394531 -71.859375 29.640625 -84.425781 C 31.890625 -96.996094 34.5 -107.527344 37.46875 -116.027344 C 38.96875 -120.324219 40.402344 -123.558594 41.765625 -125.738281 C 43.292969 -128.175781 44.835938 -129.394531 46.394531 -129.394531 Z M 46.394531 -129.394531 "/></g></g></g><g fill="#e0efdc" fill-opacity="1"><g transform="translate(0.405372, 195.594739)"><g><path d="M 65.171875 -34.03125 C 66.484375 -34.03125 67.519531 -33.421875 68.28125 -32.203125 C 69.050781 -30.984375 69.4375 -29.304688 69.4375 -27.171875 C 69.4375 -23.097656 68.46875 -19.941406 66.53125 -17.703125 C 62.15625 -12.304688 57.398438 -7.878906 52.265625 -4.421875 C 47.128906 -0.960938 41.304688 0.765625 34.796875 0.765625 C 25.835938 0.765625 19.195312 -3.300781 14.875 -11.4375 C 10.550781 -19.582031 8.390625 -30.113281 8.390625 -43.03125 C 8.390625 -55.445312 9.992188 -69.585938 13.203125 -85.453125 C 16.410156 -101.328125 21.140625 -114.960938 27.390625 -126.359375 C 33.648438 -137.753906 41.101562 -143.453125 49.75 -143.453125 C 54.632812 -143.453125 58.472656 -141.1875 61.265625 -136.65625 C 64.066406 -132.132812 65.46875 -125.648438 65.46875 -117.203125 C 65.46875 -105.097656 62.109375 -91.054688 55.390625 -75.078125 C 48.679688 -59.109375 39.578125 -43.289062 28.078125 -27.625 C 28.785156 -23.445312 29.953125 -20.46875 31.578125 -18.6875 C 33.210938 -16.914062 35.351562 -16.03125 38 -16.03125 C 42.164062 -16.03125 45.828125 -17.222656 48.984375 -19.609375 C 52.140625 -22.003906 56.160156 -26.097656 61.046875 -31.890625 C 62.265625 -33.316406 63.640625 -34.03125 65.171875 -34.03125 Z M 46.390625 -128.34375 C 44.054688 -128.34375 41.410156 -124.117188 38.453125 -115.671875 C 35.503906 -107.234375 32.910156 -96.753906 30.671875 -84.234375 C 28.429688 -71.722656 27.210938 -59.71875 27.015625 -48.21875 C 34.234375 -60.125 39.976562 -72.050781 44.25 -84 C 48.53125 -95.957031 50.671875 -106.875 50.671875 -116.75 C 50.671875 -124.476562 49.242188 -128.34375 46.390625 -128.34375 Z M 46.390625 -128.34375 "/></g></g></g></g></g></svg>