<svg xmlns="http://www.w3.org/2000/svg" xmlns:xlink="http://www.w3.org/1999/xlink" width="500" zoomAndPan="magnify" viewBox="0 0 375 374.999991" height="500" preserveAspectRatio="xMidYMid meet" version="1.0"><defs><clipPath id="846810c312"><path d="M 92.027344 67.878906 L 283.277344 67.878906 L 283.277344 307.128906 L 92.027344 307.128906 Z M 92.027344 67.878906 " clip-rule="nonzero"/></clipPath></defs><g clip-path="url(#846810c312)"><path fill="#fdfefe" d="M -242.046875 -376.617188 C 141.289062 -376.617188 524.617188 -376.617188 919.5625 -376.617188 C 919.5625 6.710938 919.5625 390.042969 919.5625 784.992188 C 536.234375 784.992188 152.902344 784.992188 -242.046875 784.992188 C -242.046875 401.664062 -242.046875 18.324219 -242.046875 -376.617188 Z M -242.046875 -376.617188 " fill-opacity="1" fill-rule="nonzero"/></g><path fill="#579ccd" d="M 103.941406 79.40625 C 106.679688 79.386719 109.410156 79.375 112.144531 79.363281 C 112.914062 79.355469 113.6875 79.347656 114.480469 79.34375 C 125.8125 79.304688 135.015625 82.664062 143.488281 90.410156 C 150.726562 98.382812 152.816406 107.117188 152.957031 117.714844 C 152.976562 118.839844 152.976562 118.839844 152.988281 119.992188 C 153.027344 122.457031 153.050781 124.921875 153.070312 127.386719 C 153.082031 128.234375 153.085938 129.082031 153.09375 129.957031 C 153.128906 134.4375 153.160156 138.921875 153.179688 143.402344 C 153.199219 147.097656 153.242188 150.792969 153.296875 154.488281 C 153.363281 158.972656 153.402344 163.449219 153.414062 167.921875 C 153.417969 169.625 153.445312 171.324219 153.472656 173.019531 C 153.777344 189.066406 153.777344 189.066406 147.683594 195.605469 C 147.097656 196.1875 146.515625 196.777344 145.910156 197.378906 C 144.855469 198.789062 143.816406 200.214844 142.808594 201.660156 C 142.320312 202.335938 141.839844 203.011719 141.335938 203.714844 C 140.859375 204.382812 140.382812 205.054688 139.886719 205.75 C 139.386719 206.445312 138.882812 207.144531 138.367188 207.859375 C 131.789062 217.074219 132.113281 227.097656 133.4375 238.21875 C 135.003906 242.503906 136.949219 245.308594 140.242188 248.425781 C 141.175781 249.316406 142.113281 250.207031 143.078125 251.125 C 144.011719 251.734375 144.953125 252.339844 145.910156 252.960938 C 146.851562 253.621094 147.785156 254.277344 148.753906 254.949219 C 157.285156 258 167.070312 257.359375 175.484375 254.074219 C 180.144531 251.707031 183.550781 248.71875 186.4375 244.304688 C 189.019531 241.617188 189.019531 241.617188 192.707031 240.984375 C 194.171875 241.015625 195.632812 241.046875 197.140625 241.082031 C 197.945312 241.089844 198.757812 241.101562 199.585938 241.113281 C 202.25 241.152344 204.914062 241.230469 207.582031 241.316406 C 209.429688 241.355469 211.28125 241.386719 213.125 241.414062 C 217.996094 241.5 222.859375 241.625 227.722656 241.761719 C 232.683594 241.882812 237.652344 241.980469 242.613281 242.074219 C 252.351562 242.269531 262.09375 242.503906 271.832031 242.757812 C 271.867188 245.652344 271.894531 248.546875 271.910156 251.445312 C 271.929688 252.667969 271.929688 252.667969 271.941406 253.910156 C 271.996094 265.007812 268.824219 273.902344 261.621094 282.457031 C 254.75 287.929688 248.84375 289.605469 240.179688 289.578125 C 238.84375 289.589844 238.84375 289.589844 237.492188 289.59375 C 234.566406 289.613281 231.644531 289.605469 228.71875 289.605469 C 226.675781 289.613281 224.628906 289.613281 222.582031 289.621094 C 218.296875 289.632812 214.011719 289.632812 209.71875 289.625 C 204.261719 289.621094 198.792969 289.636719 193.335938 289.664062 C 189.105469 289.679688 184.878906 289.679688 180.652344 289.675781 C 178.640625 289.675781 176.628906 289.679688 174.617188 289.691406 C 154.507812 289.796875 136.960938 287.019531 121.667969 272.605469 C 106.929688 256.835938 103.75 240.382812 103.8125 219.648438 C 103.8125 218.113281 103.8125 216.582031 103.8125 215.050781 C 103.8125 210.90625 103.820312 206.769531 103.824219 202.625 C 103.832031 198.289062 103.832031 193.957031 103.839844 189.628906 C 103.839844 181.425781 103.851562 173.222656 103.863281 165.027344 C 103.875 155.6875 103.882812 146.347656 103.886719 137.007812 C 103.898438 117.808594 103.917969 98.605469 103.941406 79.40625 Z M 103.941406 79.40625 " fill-opacity="1" fill-rule="nonzero"/><path fill="#99cb8b" d="M 248.964844 102.699219 C 260.382812 110.140625 268.359375 119.929688 272.964844 132.71875 C 273.246094 133.484375 273.523438 134.253906 273.804688 135.046875 C 277.789062 148.210938 275.085938 162.402344 269.109375 174.507812 C 264.492188 182.199219 258.589844 188.816406 252.691406 195.53125 C 249.148438 199.59375 245.84375 203.816406 242.554688 208.085938 C 233.675781 219.472656 223.929688 229.851562 209.4375 233.679688 C 205.796875 233.902344 205.796875 233.902344 202.207031 233.824219 C 201.007812 233.804688 199.804688 233.78125 198.566406 233.761719 C 197.664062 233.738281 196.757812 233.707031 195.824219 233.679688 C 197.417969 230.21875 199.324219 227.429688 201.714844 224.464844 C 211.121094 213.65625 211.121094 213.65625 215.320312 200.640625 C 215.984375 194.25 218.949219 190.777344 223.125 186.105469 C 224.46875 184.523438 225.824219 182.9375 227.167969 181.359375 C 227.828125 180.601562 228.484375 179.84375 229.160156 179.070312 C 241.933594 165.308594 241.933594 165.308594 246.210938 147.835938 C 244.765625 139.726562 241.96875 133.308594 235.265625 128.316406 C 228.417969 123.988281 220.738281 123.800781 212.84375 124.78125 C 200.164062 129.269531 191.9375 144.105469 184.289062 154.421875 C 183.753906 155.152344 183.214844 155.878906 182.660156 156.621094 C 181.597656 158.09375 180.570312 159.582031 179.566406 161.085938 C 176.941406 165.007812 175.515625 167.117188 170.867188 168.101562 C 170.144531 168.1875 169.417969 168.273438 168.671875 168.359375 C 165.359375 169.292969 163.289062 171.386719 160.660156 173.554688 C 157.851562 138.515625 157.851562 138.515625 167.328125 127.332031 C 169.3125 125.136719 171.335938 123.039062 173.476562 120.992188 C 175.296875 119.222656 176.90625 117.394531 178.515625 115.429688 C 184.234375 108.558594 190.03125 103.679688 198.09375 99.824219 C 199.035156 99.355469 199.976562 98.890625 200.945312 98.410156 C 216.847656 91.542969 234.148438 94.683594 248.964844 102.699219 Z M 248.964844 102.699219 " fill-opacity="1" fill-rule="nonzero"/><path fill="#67b6cf" d="M 103.941406 79.40625 C 106.679688 79.386719 109.410156 79.375 112.144531 79.363281 C 112.914062 79.355469 113.6875 79.347656 114.480469 79.34375 C 125.8125 79.304688 135.015625 82.664062 143.488281 90.410156 C 150.730469 98.390625 152.824219 107.121094 152.9375 117.734375 C 152.953125 118.488281 152.957031 119.238281 152.96875 120.015625 C 152.996094 122.488281 153.011719 124.957031 153.03125 127.429688 C 153.039062 128.277344 153.042969 129.125 153.050781 130 C 153.082031 134.488281 153.097656 138.976562 153.117188 143.464844 C 153.128906 147.171875 153.167969 150.875 153.210938 154.574219 C 153.265625 159.0625 153.296875 163.546875 153.300781 168.035156 C 153.308594 169.738281 153.328125 171.441406 153.359375 173.144531 C 153.578125 188.109375 153.578125 188.109375 149.847656 193.382812 C 148.925781 194.324219 148.003906 195.273438 147.050781 196.242188 C 140.597656 194.042969 135.21875 191.433594 129.605469 187.597656 C 128.503906 186.855469 128.503906 186.855469 127.386719 186.097656 C 121.890625 182.316406 116.890625 178.167969 112.050781 173.566406 C 109.65625 171.1875 109.65625 171.1875 106.667969 169.410156 C 103.941406 166.75 103.941406 166.75 103.261719 162.886719 C 103.242188 161.332031 103.261719 159.777344 103.296875 158.222656 C 103.296875 157.367188 103.296875 156.511719 103.296875 155.632812 C 103.296875 152.824219 103.347656 150.011719 103.390625 147.203125 C 103.402344 145.25 103.40625 143.300781 103.414062 141.34375 C 103.433594 136.214844 103.488281 131.082031 103.554688 125.949219 C 103.609375 120.710938 103.636719 115.472656 103.664062 110.234375 C 103.726562 99.957031 103.824219 89.679688 103.941406 79.40625 Z M 103.941406 79.40625 " fill-opacity="1" fill-rule="nonzero"/><path fill="#62b2d4" d="M 220.945312 242.207031 C 221.886719 242.222656 222.828125 242.226562 223.792969 242.238281 C 224.863281 242.238281 225.925781 242.238281 227.027344 242.238281 C 228.179688 242.265625 229.328125 242.289062 230.507812 242.3125 C 231.6875 242.320312 232.867188 242.324219 234.082031 242.332031 C 237.847656 242.355469 241.617188 242.410156 245.386719 242.472656 C 247.9375 242.496094 250.492188 242.515625 253.042969 242.535156 C 259.308594 242.585938 265.566406 242.65625 271.832031 242.757812 C 271.867188 245.652344 271.894531 248.546875 271.910156 251.445312 C 271.929688 252.667969 271.929688 252.667969 271.941406 253.910156 C 271.996094 265.007812 268.824219 273.902344 261.621094 282.457031 C 254.664062 287.996094 248.738281 289.605469 239.957031 289.519531 C 239.054688 289.519531 238.144531 289.519531 237.210938 289.527344 C 234.222656 289.519531 231.234375 289.503906 228.238281 289.484375 C 226.160156 289.484375 224.089844 289.476562 222.011719 289.476562 C 216.550781 289.464844 211.089844 289.449219 205.632812 289.421875 C 200.0625 289.398438 194.484375 289.386719 188.914062 289.375 C 177.980469 289.355469 167.054688 289.3125 156.125 289.261719 C 156.125 288.894531 156.125 288.519531 156.125 288.132812 C 157.339844 288.078125 158.554688 288.019531 159.808594 287.964844 C 161.394531 287.878906 162.972656 287.792969 164.558594 287.707031 C 165.367188 287.671875 166.164062 287.632812 166.988281 287.597656 C 169.046875 287.480469 171.097656 287.246094 173.136719 286.996094 C 173.511719 286.25 173.886719 285.5 174.273438 284.726562 C 176.070312 283.761719 177.894531 282.851562 179.734375 281.964844 C 194.675781 273.921875 207.65625 259.296875 216.574219 244.933594 C 218.511719 242.757812 218.511719 242.757812 220.945312 242.207031 Z M 220.945312 242.207031 " fill-opacity="1" fill-rule="nonzero"/><path fill="#6ab6d5" d="M 153.855469 193.972656 C 157.253906 195.113281 157.253906 195.113281 158.75 197.664062 C 160.546875 200.597656 161.601562 201.605469 164.277344 203.546875 C 165.328125 204.507812 166.378906 205.464844 167.46875 206.457031 C 167.609375 210.003906 167.609375 210.003906 167.46875 213.261719 C 169.121094 215.660156 169.121094 215.660156 172.003906 216.664062 C 173.246094 216.429688 174.484375 216.195312 175.761719 215.957031 C 180.3125 215.492188 180.632812 215.617188 183.988281 218.222656 C 184.632812 218.753906 185.28125 219.28125 185.945312 219.824219 C 188.703125 221.785156 191.367188 222.089844 194.695312 222.335938 C 193.035156 227.1875 190.574219 230.761719 187.460938 234.8125 C 186.589844 235.960938 185.710938 237.105469 184.8125 238.285156 C 183.953125 239.386719 183.097656 240.488281 182.210938 241.617188 C 181.40625 242.675781 180.59375 243.726562 179.757812 244.808594 C 177.183594 247.882812 176.222656 248.339844 172.25 248.769531 C 167.703125 248.34375 165.960938 246.960938 162.433594 244.101562 C 161.269531 243.175781 160.109375 242.246094 158.910156 241.285156 C 157.976562 240.535156 157.976562 240.535156 157.023438 239.773438 C 154.84375 238.109375 152.605469 236.589844 150.328125 235.082031 C 149.152344 234.289062 149.152344 234.289062 147.960938 233.476562 C 146.433594 232.453125 144.890625 231.441406 143.335938 230.460938 C 141.234375 229.007812 139.578125 227.730469 137.972656 225.738281 C 136.984375 220.0625 137.316406 217.902344 140.007812 212.832031 C 141.347656 211.042969 141.347656 211.042969 142.726562 209.222656 C 143.1875 208.589844 143.65625 207.957031 144.136719 207.308594 C 145.46875 205.496094 146.820312 203.707031 148.179688 201.917969 C 149.347656 200.289062 150.503906 198.660156 151.65625 197.023438 C 152.378906 196.023438 153.105469 195.011719 153.855469 193.972656 Z M 153.855469 193.972656 " fill-opacity="1" fill-rule="nonzero"/><path fill="#7bc2c2" d="M 177.53125 170.734375 C 186.308594 172.761719 194 180.320312 201 185.753906 C 201.691406 186.289062 202.386719 186.824219 203.09375 187.371094 C 207.683594 191.015625 210.316406 193.238281 211.140625 199.226562 C 211.015625 205.410156 207.542969 209.738281 203.769531 214.394531 C 203.246094 215.046875 202.722656 215.691406 202.183594 216.359375 C 199.015625 218.871094 195.769531 218.394531 191.878906 218.273438 C 187.136719 217.484375 185.304688 215.789062 182.210938 212.125 C 182.167969 210.238281 182.167969 208.34375 182.210938 206.457031 C 179.914062 203.589844 179.914062 203.589844 176.542969 201.917969 C 175.46875 202.152344 174.390625 202.386719 173.277344 202.625 C 169.738281 203.050781 169.738281 203.050781 167.617188 201.832031 C 162.710938 197.792969 159.972656 194.378906 159.21875 187.929688 C 159.636719 183.871094 161.246094 182.121094 163.851562 179.015625 C 164.652344 178.042969 165.457031 177.066406 166.28125 176.0625 C 169.6875 172.386719 172.421875 170.535156 177.53125 170.734375 Z M 177.53125 170.734375 " fill-opacity="1" fill-rule="nonzero"/><path fill="#73c0d2" d="M 151.585938 209.855469 C 155.109375 211.523438 158.28125 213.488281 161.511719 215.671875 C 162.867188 216.589844 162.867188 216.589844 164.257812 217.523438 C 164.941406 217.992188 165.628906 218.457031 166.332031 218.929688 C 166.835938 218.367188 167.34375 217.792969 167.863281 217.203125 C 168.484375 216.648438 169.097656 216.101562 169.738281 215.53125 C 172.503906 215.957031 172.503906 215.957031 175.40625 216.664062 C 176.136719 216.433594 176.867188 216.207031 177.621094 215.972656 C 179.941406 215.53125 179.941406 215.53125 181.886719 216.621094 C 182.820312 217.414062 182.820312 217.414062 183.773438 218.222656 C 187.351562 221.015625 190.089844 222 194.695312 222.335938 C 193.121094 226.75 191.046875 230.238281 188.3125 234.039062 C 187.597656 235.039062 186.878906 236.035156 186.140625 237.070312 C 185.324219 238.199219 185.324219 238.199219 184.480469 239.351562 C 183.738281 238.230469 182.988281 237.105469 182.210938 235.949219 C 178.75 234.574219 178.75 234.574219 175.40625 233.679688 C 175.40625 232.929688 175.40625 232.179688 175.40625 231.414062 C 174.570312 231.109375 173.734375 230.804688 172.871094 230.488281 C 169.8125 229.175781 167.585938 227.734375 164.964844 225.695312 C 164.109375 225.035156 163.261719 224.378906 162.382812 223.703125 C 161.511719 223.019531 160.636719 222.332031 159.738281 221.628906 C 158.847656 220.933594 157.949219 220.242188 157.027344 219.527344 C 154.832031 217.824219 152.636719 216.113281 150.449219 214.394531 C 150.824219 212.898438 151.199219 211.398438 151.585938 209.855469 Z M 151.585938 209.855469 " fill-opacity="1" fill-rule="nonzero"/><path fill="#f2f8f7" d="M 151.585938 209.855469 C 155.074219 211.484375 158.066406 213.421875 161.160156 215.703125 C 162.574219 216.742188 162.574219 216.742188 164.019531 217.804688 C 164.992188 218.53125 165.96875 219.25 166.96875 219.996094 C 167.949219 220.714844 168.929688 221.433594 169.941406 222.175781 C 177.878906 228.035156 177.878906 228.035156 181.082031 231.414062 C 180.707031 232.539062 180.332031 233.65625 179.941406 234.8125 C 178.449219 234.445312 176.949219 234.070312 175.40625 233.679688 C 175.40625 232.929688 175.40625 232.179688 175.40625 231.414062 C 174.570312 231.109375 173.734375 230.804688 172.871094 230.488281 C 169.8125 229.175781 167.585938 227.734375 164.964844 225.695312 C 164.109375 225.035156 163.261719 224.378906 162.382812 223.703125 C 161.511719 223.019531 160.636719 222.332031 159.738281 221.628906 C 158.847656 220.933594 157.949219 220.242188 157.027344 219.527344 C 154.832031 217.824219 152.636719 216.113281 150.449219 214.394531 C 150.824219 212.898438 151.199219 211.398438 151.585938 209.855469 Z M 151.585938 209.855469 " fill-opacity="1" fill-rule="nonzero"/><path fill="#75caa4" d="M 199.230469 166.75 C 203.542969 168.773438 207.144531 171.390625 210.574219 174.691406 C 211.996094 178.949219 211.996094 178.949219 211.707031 182.628906 C 210.585938 184.316406 210.585938 184.316406 209.4375 186.035156 C 207.941406 185.285156 206.441406 184.535156 204.898438 183.769531 C 205.042969 182.949219 205.183594 182.132812 205.332031 181.285156 C 205.164062 177.761719 205.164062 177.761719 201.925781 174.835938 C 198.328125 172.035156 198.328125 172.035156 194.410156 172.707031 C 192.867188 173.132812 192.867188 173.132812 191.289062 173.554688 C 190.542969 173.1875 189.792969 172.8125 189.019531 172.425781 C 189.449219 170.222656 189.449219 170.222656 190.15625 167.886719 C 193.359375 166.28125 195.671875 166.472656 199.230469 166.75 Z M 199.230469 166.75 " fill-opacity="1" fill-rule="nonzero"/><path fill="#8ac79f" d="M 160.660156 138.394531 C 161.035156 138.394531 161.410156 138.394531 161.792969 138.394531 C 162.882812 146.613281 162.992188 154.710938 162.855469 162.988281 C 162.917969 166.042969 163.140625 168.402344 164.0625 171.285156 C 162.941406 172.035156 161.816406 172.785156 160.660156 173.554688 C 160.660156 161.953125 160.660156 150.351562 160.660156 138.394531 Z M 160.660156 138.394531 " fill-opacity="1" fill-rule="nonzero"/><path fill="#78c298" d="M 216.242188 204.1875 C 217.382812 206.457031 217.382812 206.457031 216.457031 209.789062 C 213.484375 216.472656 207.640625 221.679688 202.632812 226.875 C 202.261719 226.125 201.886719 225.375 201.5 224.605469 C 202.28125 223.609375 203.054688 222.609375 203.859375 221.582031 C 204.894531 220.246094 205.925781 218.917969 206.960938 217.585938 C 207.46875 216.933594 207.988281 216.273438 208.507812 215.597656 C 211.363281 211.921875 213.945312 208.246094 216.242188 204.1875 Z M 216.242188 204.1875 " fill-opacity="1" fill-rule="nonzero"/><path fill="#87cfad" d="M 206.039062 172.425781 C 208.230469 173.0625 208.230469 173.0625 210.574219 174.691406 C 211.566406 178.589844 211.566406 178.589844 211.707031 182.628906 C 210.585938 184.316406 210.585938 184.316406 209.4375 186.035156 C 207.941406 185.285156 206.441406 184.535156 204.898438 183.769531 C 205.273438 181.898438 205.648438 180.023438 206.039062 178.09375 C 206.789062 178.09375 207.53125 178.09375 208.304688 178.09375 C 207.554688 176.222656 206.804688 174.355469 206.039062 172.425781 Z M 206.039062 172.425781 " fill-opacity="1" fill-rule="nonzero"/><path fill="#6fc3ca" d="M 174.273438 205.316406 C 175.398438 205.695312 176.519531 206.070312 177.675781 206.457031 C 177.304688 207.949219 176.929688 209.449219 176.542969 210.992188 C 175.042969 211.367188 173.550781 211.742188 172.003906 212.125 C 172.003906 207.585938 172.003906 207.585938 174.273438 205.316406 Z M 174.273438 205.316406 " fill-opacity="1" fill-rule="nonzero"/><path fill="#84d5aa" d="M 194.695312 166.75 C 194.695312 167.5 194.695312 168.25 194.695312 169.019531 C 193.566406 169.582031 193.566406 169.582031 192.425781 170.15625 C 192.800781 171.28125 193.175781 172.398438 193.554688 173.554688 C 192.0625 173.1875 190.5625 172.8125 189.019531 172.425781 C 189.449219 170.222656 189.449219 170.222656 190.15625 167.886719 C 192.425781 166.75 192.425781 166.75 194.695312 166.75 Z M 194.695312 166.75 " fill-opacity="1" fill-rule="nonzero"/></svg>