<svg xmlns="http://www.w3.org/2000/svg" xmlns:xlink="http://www.w3.org/1999/xlink" width="500" zoomAndPan="magnify" viewBox="0 0 375 374.999991" height="500" preserveAspectRatio="xMidYMid meet" version="1.0"><defs><clipPath id="c6f6395d48"><path d="M 34.644531 0 L 333.894531 0 L 333.894531 375 L 34.644531 375 Z M 34.644531 0 " clip-rule="nonzero"/></clipPath></defs><g clip-path="url(#c6f6395d48)"><path fill="#fdfefe" d="M -489.152344 -696.796875 C 111.910156 -696.796875 712.964844 -696.796875 1332.230469 -696.796875 C 1332.230469 -95.742188 1332.230469 505.3125 1332.230469 1124.589844 C 731.175781 1124.589844 130.121094 1124.589844 -489.152344 1124.589844 C -489.152344 523.535156 -489.152344 -77.53125 -489.152344 -696.796875 Z M -489.152344 -696.796875 " fill-opacity="1" fill-rule="nonzero"/></g><path fill="#579ccd" d="M 53.351562 18.238281 C 57.644531 18.210938 61.921875 18.191406 66.214844 18.171875 C 67.417969 18.164062 68.632812 18.152344 69.878906 18.144531 C 87.644531 18.085938 102.078125 23.347656 115.363281 35.496094 C 126.707031 48 129.984375 61.691406 130.207031 78.308594 C 130.238281 80.074219 130.238281 80.074219 130.257812 81.878906 C 130.3125 85.742188 130.351562 89.609375 130.382812 93.476562 C 130.402344 94.804688 130.410156 96.136719 130.421875 97.503906 C 130.476562 104.53125 130.527344 111.5625 130.554688 118.589844 C 130.582031 124.382812 130.652344 130.175781 130.738281 135.96875 C 130.84375 143 130.902344 150.015625 130.921875 157.035156 C 130.929688 159.707031 130.96875 162.367188 131.019531 165.027344 C 131.488281 190.191406 131.488281 190.191406 121.9375 200.4375 C 121.019531 201.351562 120.105469 202.277344 119.160156 203.222656 C 117.5 205.429688 115.871094 207.667969 114.292969 209.933594 C 113.53125 210.992188 112.777344 212.054688 111.988281 213.152344 C 111.234375 214.203125 110.492188 215.253906 109.710938 216.34375 C 108.929688 217.433594 108.140625 218.53125 107.332031 219.652344 C 97.015625 234.101562 97.527344 249.816406 99.597656 267.257812 C 102.058594 273.976562 105.105469 278.371094 110.269531 283.261719 C 111.738281 284.65625 113.203125 286.054688 114.714844 287.492188 C 116.179688 288.445312 117.65625 289.402344 119.160156 290.375 C 120.636719 291.40625 122.101562 292.4375 123.613281 293.488281 C 136.996094 298.269531 152.332031 297.269531 165.53125 292.121094 C 172.839844 288.410156 178.179688 283.722656 182.703125 276.800781 C 186.75 272.589844 186.75 272.589844 192.535156 271.59375 C 194.828125 271.644531 197.125 271.691406 199.484375 271.75 C 200.75 271.757812 202.019531 271.777344 203.324219 271.796875 C 207.496094 271.855469 211.671875 271.980469 215.855469 272.117188 C 218.757812 272.171875 221.660156 272.222656 224.550781 272.269531 C 232.1875 272.40625 239.8125 272.597656 247.4375 272.808594 C 255.21875 273.003906 263.007812 273.15625 270.789062 273.300781 C 286.058594 273.609375 301.328125 273.976562 316.601562 274.371094 C 316.65625 278.914062 316.695312 283.453125 316.726562 287.992188 C 316.753906 289.914062 316.753906 289.914062 316.773438 291.859375 C 316.859375 309.261719 311.886719 323.210938 300.585938 336.621094 C 289.816406 345.203125 280.554688 347.832031 266.96875 347.785156 C 264.878906 347.804688 264.878906 347.804688 262.757812 347.8125 C 258.167969 347.84375 253.589844 347.832031 249 347.832031 C 245.800781 347.84375 242.589844 347.84375 239.378906 347.851562 C 232.660156 347.871094 225.9375 347.871094 219.210938 347.863281 C 210.648438 347.851562 202.078125 347.882812 193.519531 347.917969 C 186.886719 347.949219 180.261719 347.949219 173.628906 347.9375 C 170.476562 347.9375 167.324219 347.949219 164.171875 347.96875 C 132.636719 348.132812 105.125 343.773438 81.148438 321.175781 C 58.039062 296.449219 53.054688 270.648438 53.152344 238.140625 C 53.152344 235.730469 53.152344 233.332031 53.152344 230.929688 C 53.152344 224.433594 53.160156 217.945312 53.167969 211.445312 C 53.179688 204.652344 53.179688 197.855469 53.1875 191.066406 C 53.1875 178.207031 53.207031 165.34375 53.226562 152.496094 C 53.246094 137.851562 53.257812 123.207031 53.265625 108.5625 C 53.285156 78.453125 53.3125 48.347656 53.351562 18.238281 Z M 53.351562 18.238281 " fill-opacity="1" fill-rule="nonzero"/><path fill="#99cb8b" d="M 280.746094 54.769531 C 298.648438 66.433594 311.152344 81.78125 318.375 101.832031 C 318.816406 103.039062 319.25 104.242188 319.695312 105.488281 C 325.941406 126.128906 321.699219 148.378906 312.328125 167.359375 C 305.089844 179.421875 295.832031 189.792969 286.589844 200.320312 C 281.035156 206.695312 275.847656 213.316406 270.691406 220.007812 C 256.769531 237.863281 241.488281 254.136719 218.765625 260.140625 C 213.058594 260.488281 213.058594 260.488281 207.429688 260.363281 C 205.550781 260.335938 203.660156 260.296875 201.722656 260.265625 C 200.304688 260.230469 198.886719 260.179688 197.421875 260.140625 C 199.917969 254.714844 202.90625 250.335938 206.65625 245.691406 C 221.410156 228.742188 221.410156 228.742188 227.992188 208.332031 C 229.035156 198.316406 233.679688 192.871094 240.226562 185.542969 C 242.339844 183.066406 244.460938 180.578125 246.570312 178.101562 C 247.601562 176.914062 248.632812 175.730469 249.695312 174.515625 C 269.71875 152.9375 269.71875 152.9375 276.425781 125.539062 C 274.160156 112.824219 269.773438 102.757812 259.265625 94.929688 C 248.527344 88.144531 236.484375 87.855469 224.109375 89.386719 C 204.230469 96.425781 191.328125 119.6875 179.335938 135.863281 C 178.496094 137.011719 177.648438 138.148438 176.78125 139.316406 C 175.113281 141.621094 173.503906 143.953125 171.933594 146.316406 C 167.816406 152.464844 165.578125 155.773438 158.292969 157.316406 C 157.152344 157.449219 156.015625 157.585938 154.847656 157.71875 C 149.652344 159.183594 146.402344 162.464844 142.289062 165.867188 C 137.882812 110.925781 137.882812 110.925781 152.738281 93.386719 C 155.851562 89.945312 159.023438 86.660156 162.378906 83.449219 C 165.230469 80.671875 167.757812 77.808594 170.285156 74.722656 C 179.25 63.957031 188.339844 56.300781 200.980469 50.257812 C 202.453125 49.523438 203.929688 48.789062 205.453125 48.039062 C 230.382812 37.269531 257.511719 42.195312 280.746094 54.769531 Z M 280.746094 54.769531 " fill-opacity="1" fill-rule="nonzero"/><path fill="#67b6cf" d="M 53.351562 18.238281 C 57.644531 18.210938 61.921875 18.191406 66.214844 18.171875 C 67.417969 18.164062 68.632812 18.152344 69.878906 18.144531 C 87.644531 18.085938 102.078125 23.347656 115.363281 35.496094 C 126.71875 48.007812 129.996094 61.699219 130.179688 78.339844 C 130.199219 79.523438 130.207031 80.699219 130.226562 81.914062 C 130.265625 85.792969 130.292969 89.667969 130.324219 93.542969 C 130.332031 94.871094 130.34375 96.203125 130.351562 97.570312 C 130.402344 104.609375 130.429688 111.648438 130.457031 118.683594 C 130.476562 124.5 130.535156 130.300781 130.601562 136.105469 C 130.691406 143.144531 130.738281 150.171875 130.746094 157.207031 C 130.757812 159.878906 130.785156 162.550781 130.835938 165.21875 C 131.183594 188.6875 131.183594 188.6875 125.328125 196.957031 C 123.882812 198.433594 122.4375 199.917969 120.941406 201.441406 C 110.832031 197.988281 102.394531 193.902344 93.59375 187.886719 C 91.867188 186.71875 91.867188 186.71875 90.113281 185.53125 C 81.492188 179.605469 73.65625 173.097656 66.070312 165.886719 C 62.308594 162.15625 62.308594 162.15625 57.625 159.367188 C 53.351562 155.195312 53.351562 155.195312 52.28125 149.140625 C 52.253906 146.699219 52.28125 144.261719 52.339844 141.824219 C 52.339844 140.484375 52.339844 139.140625 52.339844 137.765625 C 52.339844 133.359375 52.417969 128.953125 52.484375 124.546875 C 52.503906 121.480469 52.515625 118.425781 52.523438 115.359375 C 52.554688 107.320312 52.640625 99.269531 52.746094 91.21875 C 52.832031 83.003906 52.871094 74.792969 52.917969 66.578125 C 53.015625 50.46875 53.167969 34.347656 53.351562 18.238281 Z M 53.351562 18.238281 " fill-opacity="1" fill-rule="nonzero"/><path fill="#62b2d4" d="M 236.8125 273.511719 C 238.289062 273.53125 239.765625 273.542969 241.277344 273.5625 C 242.957031 273.5625 244.621094 273.5625 246.347656 273.5625 C 248.152344 273.601562 249.953125 273.640625 251.804688 273.675781 C 253.65625 273.6875 255.507812 273.695312 257.40625 273.707031 C 263.316406 273.746094 269.226562 273.832031 275.136719 273.929688 C 279.136719 273.964844 283.136719 273.996094 287.136719 274.023438 C 296.960938 274.101562 306.777344 274.21875 316.601562 274.371094 C 316.65625 278.914062 316.695312 283.453125 316.726562 287.992188 C 316.753906 289.914062 316.753906 289.914062 316.773438 291.859375 C 316.859375 309.261719 311.886719 323.210938 300.585938 336.621094 C 289.683594 345.308594 280.390625 347.832031 266.621094 347.699219 C 265.207031 347.699219 263.777344 347.699219 262.3125 347.707031 C 257.628906 347.699219 252.941406 347.667969 248.246094 347.640625 C 244.988281 347.640625 241.742188 347.628906 238.480469 347.628906 C 229.921875 347.613281 221.359375 347.582031 212.800781 347.542969 C 204.066406 347.503906 195.320312 347.484375 186.585938 347.464844 C 169.445312 347.4375 152.3125 347.371094 135.171875 347.292969 C 135.171875 346.714844 135.171875 346.125 135.171875 345.519531 C 137.082031 345.433594 138.980469 345.347656 140.949219 345.257812 C 143.433594 345.125 145.914062 344.988281 148.398438 344.855469 C 149.664062 344.796875 150.917969 344.738281 152.207031 344.679688 C 155.4375 344.496094 158.648438 344.132812 161.847656 343.734375 C 162.4375 342.570312 163.023438 341.394531 163.632812 340.179688 C 166.445312 338.664062 169.308594 337.238281 172.191406 335.851562 C 195.621094 323.238281 215.972656 300.304688 229.960938 277.785156 C 232.996094 274.371094 232.996094 274.371094 236.8125 273.511719 Z M 236.8125 273.511719 " fill-opacity="1" fill-rule="nonzero"/><path fill="#6ab6d5" d="M 131.617188 197.882812 C 136.945312 199.667969 136.945312 199.667969 139.289062 203.667969 C 142.105469 208.265625 143.761719 209.847656 147.957031 212.894531 C 149.605469 214.398438 151.253906 215.902344 152.960938 217.453125 C 153.179688 223.015625 153.179688 223.015625 152.960938 228.125 C 155.554688 231.886719 155.554688 231.886719 160.074219 233.457031 C 162.023438 233.089844 163.960938 232.722656 165.964844 232.347656 C 173.097656 231.625 173.601562 231.816406 178.863281 235.90625 C 179.875 236.734375 180.890625 237.5625 181.929688 238.410156 C 186.257812 241.488281 190.433594 241.96875 195.648438 242.355469 C 193.046875 249.960938 189.1875 255.5625 184.3125 261.914062 C 182.941406 263.71875 181.5625 265.511719 180.15625 267.363281 C 178.804688 269.089844 177.464844 270.8125 176.078125 272.589844 C 174.816406 274.246094 173.542969 275.894531 172.230469 277.589844 C 168.191406 282.410156 166.6875 283.125 160.460938 283.800781 C 153.328125 283.136719 150.597656 280.964844 145.0625 276.484375 C 143.242188 275.027344 141.421875 273.570312 139.539062 272.066406 C 138.074219 270.890625 138.074219 270.890625 136.582031 269.695312 C 133.167969 267.082031 129.660156 264.703125 126.082031 262.339844 C 124.242188 261.097656 124.242188 261.097656 122.371094 259.824219 C 119.980469 258.214844 117.558594 256.632812 115.121094 255.089844 C 111.824219 252.816406 109.230469 250.808594 106.714844 247.6875 C 105.160156 238.789062 105.683594 235.402344 109.90625 227.449219 C 112.007812 224.644531 112.007812 224.644531 114.164062 221.792969 C 114.890625 220.796875 115.621094 219.804688 116.375 218.792969 C 118.464844 215.949219 120.585938 213.144531 122.71875 210.339844 C 124.550781 207.785156 126.363281 205.230469 128.164062 202.664062 C 129.300781 201.09375 130.4375 199.511719 131.617188 197.882812 Z M 131.617188 197.882812 " fill-opacity="1" fill-rule="nonzero"/><path fill="#7bc2c2" d="M 168.742188 161.441406 C 182.5 164.621094 194.558594 176.472656 205.539062 184.992188 C 206.621094 185.832031 207.707031 186.671875 208.816406 187.527344 C 216.019531 193.246094 220.144531 196.726562 221.4375 206.117188 C 221.246094 215.8125 215.796875 222.601562 209.878906 229.898438 C 209.058594 230.921875 208.238281 231.933594 207.390625 232.984375 C 202.425781 236.917969 197.335938 236.175781 191.234375 235.984375 C 183.800781 234.75 180.925781 232.085938 176.078125 226.34375 C 176.011719 223.382812 176.011719 220.414062 176.078125 217.453125 C 172.472656 212.960938 172.472656 212.960938 167.1875 210.339844 C 165.503906 210.703125 163.816406 211.070312 162.070312 211.445312 C 156.515625 212.113281 156.515625 212.113281 153.191406 210.203125 C 145.496094 203.871094 141.207031 198.519531 140.023438 188.40625 C 140.675781 182.042969 143.203125 179.296875 147.292969 174.425781 C 148.542969 172.902344 149.808594 171.371094 151.097656 169.800781 C 156.441406 164.035156 160.730469 161.132812 168.742188 161.441406 Z M 168.742188 161.441406 " fill-opacity="1" fill-rule="nonzero"/><path fill="#73c0d2" d="M 128.058594 222.785156 C 133.582031 225.398438 138.558594 228.480469 143.617188 231.90625 C 145.75 233.339844 145.75 233.339844 147.925781 234.804688 C 148.996094 235.539062 150.078125 236.273438 151.175781 237.015625 C 151.96875 236.128906 152.765625 235.230469 153.578125 234.304688 C 154.550781 233.4375 155.515625 232.578125 156.515625 231.683594 C 160.855469 232.347656 160.855469 232.347656 165.40625 233.457031 C 166.554688 233.101562 167.699219 232.742188 168.875 232.375 C 172.519531 231.683594 172.519531 231.683594 175.566406 233.390625 C 177.03125 234.632812 177.03125 234.632812 178.527344 235.90625 C 184.136719 240.28125 188.425781 241.824219 195.648438 242.355469 C 193.179688 249.277344 189.933594 254.742188 185.640625 260.699219 C 184.523438 262.273438 183.394531 263.835938 182.238281 265.453125 C 180.957031 267.226562 180.957031 267.226562 179.636719 269.03125 C 178.46875 267.277344 177.292969 265.511719 176.078125 263.699219 C 170.652344 261.539062 170.652344 261.539062 165.40625 260.140625 C 165.40625 258.964844 165.40625 257.789062 165.40625 256.585938 C 164.09375 256.113281 162.785156 255.628906 161.433594 255.136719 C 156.632812 253.074219 153.144531 250.820312 149.035156 247.617188 C 147.695312 246.585938 146.367188 245.554688 144.988281 244.496094 C 143.617188 243.425781 142.25 242.34375 140.839844 241.246094 C 139.445312 240.15625 138.035156 239.066406 136.589844 237.949219 C 133.148438 235.277344 129.707031 232.597656 126.273438 229.898438 C 126.863281 227.554688 127.449219 225.203125 128.058594 222.785156 Z M 128.058594 222.785156 " fill-opacity="1" fill-rule="nonzero"/><path fill="#f2f8f7" d="M 128.058594 222.785156 C 133.523438 225.339844 138.21875 228.375 143.070312 231.953125 C 145.285156 233.582031 145.285156 233.582031 147.550781 235.25 C 149.074219 236.386719 150.609375 237.515625 152.179688 238.683594 C 153.710938 239.808594 155.253906 240.9375 156.835938 242.105469 C 169.28125 251.292969 169.28125 251.292969 174.304688 256.585938 C 173.714844 258.347656 173.128906 260.101562 172.519531 261.914062 C 170.179688 261.335938 167.824219 260.75 165.40625 260.140625 C 165.40625 258.964844 165.40625 257.789062 165.40625 256.585938 C 164.09375 256.113281 162.785156 255.628906 161.433594 255.136719 C 156.632812 253.074219 153.144531 250.820312 149.035156 247.617188 C 147.695312 246.585938 146.367188 245.554688 144.988281 244.496094 C 143.617188 243.425781 142.25 242.34375 140.839844 241.246094 C 139.445312 240.15625 138.035156 239.066406 136.589844 237.949219 C 133.148438 235.277344 129.707031 232.597656 126.273438 229.898438 C 126.863281 227.554688 127.449219 225.203125 128.058594 222.785156 Z M 128.058594 222.785156 " fill-opacity="1" fill-rule="nonzero"/><path fill="#75caa4" d="M 202.761719 155.195312 C 209.519531 158.367188 215.171875 162.472656 220.550781 167.648438 C 222.777344 174.320312 222.777344 174.320312 222.324219 180.097656 C 220.570312 182.738281 220.570312 182.738281 218.765625 185.4375 C 216.425781 184.261719 214.070312 183.085938 211.652344 181.878906 C 211.875 180.597656 212.09375 179.316406 212.328125 177.984375 C 212.066406 172.460938 212.066406 172.460938 206.984375 167.871094 C 201.347656 163.484375 201.347656 163.484375 195.207031 164.535156 C 192.785156 165.199219 192.785156 165.199219 190.308594 165.867188 C 189.140625 165.289062 187.964844 164.699219 186.75 164.09375 C 187.425781 160.640625 187.425781 160.640625 188.535156 156.976562 C 193.554688 154.460938 197.179688 154.761719 202.761719 155.195312 Z M 202.761719 155.195312 " fill-opacity="1" fill-rule="nonzero"/><path fill="#8ac79f" d="M 142.289062 110.730469 C 142.875 110.730469 143.464844 110.730469 144.0625 110.730469 C 145.769531 123.621094 145.941406 136.316406 145.730469 149.292969 C 145.824219 154.085938 146.171875 157.789062 147.617188 162.308594 C 145.863281 163.484375 144.101562 164.660156 142.289062 165.867188 C 142.289062 147.675781 142.289062 129.484375 142.289062 110.730469 Z M 142.289062 110.730469 " fill-opacity="1" fill-rule="nonzero"/><path fill="#78c298" d="M 229.4375 213.894531 C 231.222656 217.453125 231.222656 217.453125 229.777344 222.679688 C 225.109375 233.15625 215.953125 241.324219 208.09375 249.46875 C 207.515625 248.292969 206.929688 247.117188 206.320312 245.914062 C 207.546875 244.351562 208.761719 242.777344 210.023438 241.167969 C 211.640625 239.078125 213.261719 236.996094 214.882812 234.902344 C 215.683594 233.882812 216.492188 232.847656 217.3125 231.789062 C 221.785156 226.023438 225.832031 220.257812 229.4375 213.894531 Z M 229.4375 213.894531 " fill-opacity="1" fill-rule="nonzero"/><path fill="#87cfad" d="M 213.433594 164.09375 C 216.878906 165.09375 216.878906 165.09375 220.550781 167.648438 C 222.101562 173.761719 222.101562 173.761719 222.324219 180.097656 C 220.570312 182.738281 220.570312 182.738281 218.765625 185.4375 C 216.425781 184.261719 214.070312 183.085938 211.652344 181.878906 C 212.238281 178.949219 212.828125 176.007812 213.433594 172.980469 C 214.613281 172.980469 215.777344 172.980469 216.992188 172.980469 C 215.816406 170.050781 214.640625 167.121094 213.433594 164.09375 Z M 213.433594 164.09375 " fill-opacity="1" fill-rule="nonzero"/><path fill="#6fc3ca" d="M 163.632812 215.667969 C 165.394531 216.257812 167.152344 216.847656 168.964844 217.453125 C 168.386719 219.796875 167.796875 222.148438 167.1875 224.566406 C 164.835938 225.15625 162.496094 225.746094 160.074219 226.34375 C 160.074219 219.226562 160.074219 219.226562 163.632812 215.667969 Z M 163.632812 215.667969 " fill-opacity="1" fill-rule="nonzero"/><path fill="#84d5aa" d="M 195.648438 155.195312 C 195.648438 156.371094 195.648438 157.546875 195.648438 158.75 C 193.882812 159.636719 193.882812 159.636719 192.089844 160.535156 C 192.679688 162.300781 193.265625 164.054688 193.863281 165.867188 C 191.523438 165.289062 189.171875 164.699219 186.75 164.09375 C 187.425781 160.640625 187.425781 160.640625 188.535156 156.976562 C 192.089844 155.195312 192.089844 155.195312 195.648438 155.195312 Z M 195.648438 155.195312 " fill-opacity="1" fill-rule="nonzero"/></svg>