<svg xmlns="http://www.w3.org/2000/svg" xmlns:xlink="http://www.w3.org/1999/xlink" width="500" zoomAndPan="magnify" viewBox="0 0 375 374.999991" height="500" preserveAspectRatio="xMidYMid meet" version="1.0"><rect x="-37.5" width="450" fill="#ffffff" y="-37.499999" height="449.999989" fill-opacity="1"/><rect x="-37.5" width="450" fill="#ffffff" y="-37.499999" height="449.999989" fill-opacity="1"/><path fill="#fdfefe" d="M -196.054688 -181.417969 C 47.488281 -181.417969 291.027344 -181.417969 541.945312 -181.417969 C 541.945312 62.121094 541.945312 305.660156 541.945312 556.582031 C 298.40625 556.582031 54.867188 556.582031 -196.054688 556.582031 C -196.054688 313.042969 -196.054688 69.5 -196.054688 -181.417969 Z M -196.054688 -181.417969 " fill-opacity="1" fill-rule="nonzero"/><path fill="#579ccd" d="M 23.761719 108.304688 C 25.5 108.292969 27.234375 108.285156 28.972656 108.277344 C 29.460938 108.273438 29.953125 108.269531 30.457031 108.265625 C 37.65625 108.242188 43.503906 110.375 48.886719 115.296875 C 53.484375 120.363281 54.8125 125.910156 54.902344 132.644531 C 54.914062 133.359375 54.914062 133.359375 54.921875 134.089844 C 54.945312 135.65625 54.960938 137.222656 54.972656 138.789062 C 54.980469 139.328125 54.984375 139.867188 54.988281 140.421875 C 55.011719 143.269531 55.03125 146.117188 55.042969 148.964844 C 55.054688 151.3125 55.082031 153.660156 55.117188 156.007812 C 55.160156 158.855469 55.183594 161.699219 55.191406 164.542969 C 55.195312 165.625 55.210938 166.703125 55.230469 167.78125 C 55.421875 177.976562 55.421875 177.976562 51.550781 182.128906 C 51.179688 182.5 50.808594 182.875 50.425781 183.257812 C 49.753906 184.152344 49.09375 185.058594 48.453125 185.976562 C 48.144531 186.40625 47.839844 186.835938 47.519531 187.28125 C 47.214844 187.707031 46.914062 188.132812 46.597656 188.574219 C 46.28125 189.015625 45.960938 189.460938 45.632812 189.914062 C 41.453125 195.769531 41.660156 202.136719 42.5 209.203125 C 43.496094 211.925781 44.730469 213.707031 46.824219 215.6875 C 47.417969 216.253906 48.011719 216.820312 48.625 217.402344 C 49.21875 217.789062 49.816406 218.175781 50.425781 218.570312 C 51.023438 218.988281 51.617188 219.40625 52.230469 219.832031 C 57.652344 221.769531 63.867188 221.363281 69.214844 219.277344 C 72.175781 217.773438 74.339844 215.875 76.171875 213.070312 C 77.8125 211.363281 77.8125 211.363281 80.15625 210.960938 C 81.085938 210.980469 82.015625 211 82.972656 211.023438 C 83.484375 211.027344 84 211.035156 84.527344 211.042969 C 86.21875 211.066406 87.910156 211.117188 89.605469 211.171875 C 90.78125 211.195312 91.957031 211.214844 93.128906 211.234375 C 96.222656 211.289062 99.3125 211.367188 102.402344 211.453125 C 105.554688 211.53125 108.710938 211.59375 111.863281 211.652344 C 118.050781 211.777344 124.238281 211.925781 130.425781 212.085938 C 130.449219 213.925781 130.464844 215.765625 130.476562 217.605469 C 130.488281 218.382812 130.488281 218.382812 130.496094 219.171875 C 130.53125 226.222656 128.515625 231.875 123.9375 237.308594 C 119.574219 240.785156 115.820312 241.851562 110.316406 241.832031 C 109.46875 241.839844 109.46875 241.839844 108.609375 241.84375 C 106.75 241.855469 104.894531 241.851562 103.035156 241.851562 C 101.738281 241.855469 100.4375 241.855469 99.136719 241.859375 C 96.414062 241.867188 93.691406 241.867188 90.964844 241.863281 C 87.496094 241.859375 84.023438 241.871094 80.554688 241.886719 C 77.867188 241.898438 75.183594 241.898438 72.496094 241.894531 C 71.21875 241.894531 69.941406 241.898438 68.664062 241.90625 C 55.886719 241.972656 44.738281 240.207031 35.023438 231.050781 C 25.660156 221.03125 23.640625 210.578125 23.679688 197.40625 C 23.679688 196.429688 23.679688 195.457031 23.679688 194.484375 C 23.679688 191.851562 23.683594 189.222656 23.6875 186.589844 C 23.691406 183.835938 23.691406 181.082031 23.695312 178.332031 C 23.695312 173.121094 23.703125 167.910156 23.710938 162.703125 C 23.71875 156.769531 23.722656 150.835938 23.726562 144.902344 C 23.734375 132.703125 23.746094 120.503906 23.761719 108.304688 Z M 23.761719 108.304688 " fill-opacity="1" fill-rule="nonzero"/><path fill="#306396" d="M 286.097656 171.003906 C 286.738281 171.289062 287.375 171.570312 288.035156 171.859375 C 297.835938 176.664062 302.964844 184.269531 306.996094 194.066406 C 308.082031 199.492188 307.71875 205.113281 307.71875 210.644531 C 287.976562 210.644531 268.238281 210.644531 247.898438 210.644531 C 249.539062 217.203125 251.277344 222.742188 256.546875 227.21875 C 257.417969 227.980469 257.417969 227.980469 258.304688 228.753906 C 264.242188 233.09375 270.273438 233.582031 277.449219 232.984375 C 285.039062 231.128906 289.867188 227.402344 294.746094 221.453125 C 297.914062 222.019531 300.472656 223.019531 303.394531 224.335938 C 303.113281 228.851562 300.050781 232.074219 296.925781 235.070312 C 287.171875 243.210938 275.917969 243.910156 263.753906 243.074219 C 260.796875 242.527344 258.449219 241.652344 255.828125 240.191406 C 255.152344 239.828125 254.472656 239.460938 253.777344 239.082031 C 244.417969 233.578125 239.085938 225.085938 236.148438 214.722656 C 234.570312 206.414062 234.976562 198.203125 238.53125 190.464844 C 239.003906 189.433594 239.003906 189.433594 239.484375 188.378906 C 243.9375 179.476562 251.308594 173.632812 260.511719 169.96875 C 268.382812 167.585938 278.554688 167.5625 286.097656 171.003906 Z M 286.097656 171.003906 " fill-opacity="1" fill-rule="nonzero"/><path fill="#99cb8b" d="M 115.898438 123.105469 C 123.152344 127.832031 128.21875 134.050781 131.144531 142.175781 C 131.324219 142.664062 131.5 143.152344 131.679688 143.65625 C 134.210938 152.019531 132.492188 161.035156 128.695312 168.726562 C 125.761719 173.613281 122.011719 177.816406 118.265625 182.082031 C 116.015625 184.664062 113.914062 187.347656 111.824219 190.058594 C 106.183594 197.292969 99.992188 203.886719 90.785156 206.320312 C 88.472656 206.460938 88.472656 206.460938 86.191406 206.410156 C 85.429688 206.398438 84.664062 206.382812 83.878906 206.371094 C 83.304688 206.355469 82.730469 206.335938 82.136719 206.320312 C 83.148438 204.121094 84.359375 202.347656 85.878906 200.464844 C 91.855469 193.597656 91.855469 193.597656 94.523438 185.328125 C 94.945312 181.269531 96.828125 179.0625 99.480469 176.09375 C 100.335938 175.089844 101.195312 174.082031 102.050781 173.078125 C 102.46875 172.597656 102.886719 172.117188 103.316406 171.625 C 111.429688 162.882812 111.429688 162.882812 114.148438 151.78125 C 113.230469 146.628906 111.453125 142.550781 107.195312 139.378906 C 102.84375 136.628906 97.964844 136.511719 92.949219 137.132812 C 84.894531 139.984375 79.667969 149.410156 74.808594 155.964844 C 74.46875 156.429688 74.125 156.890625 73.773438 157.363281 C 73.097656 158.296875 72.445312 159.242188 71.808594 160.199219 C 70.140625 162.691406 69.234375 164.03125 66.28125 164.65625 C 65.820312 164.710938 65.359375 164.765625 64.886719 164.820312 C 62.78125 165.414062 61.464844 166.742188 59.796875 168.121094 C 58.011719 145.859375 58.011719 145.859375 64.03125 138.753906 C 65.292969 137.359375 66.578125 136.027344 67.9375 134.726562 C 69.09375 133.601562 70.117188 132.441406 71.140625 131.191406 C 74.773438 126.828125 78.457031 123.726562 83.578125 121.277344 C 84.175781 120.980469 84.773438 120.683594 85.390625 120.378906 C 95.492188 116.015625 106.484375 118.011719 115.898438 123.105469 Z M 115.898438 123.105469 " fill-opacity="1" fill-rule="nonzero"/><path fill="#67b6cf" d="M 23.761719 108.304688 C 25.5 108.292969 27.234375 108.285156 28.972656 108.277344 C 29.460938 108.273438 29.953125 108.269531 30.457031 108.265625 C 37.65625 108.242188 43.503906 110.375 48.886719 115.296875 C 53.488281 120.367188 54.816406 125.914062 54.890625 132.65625 C 54.898438 133.136719 54.902344 133.613281 54.910156 134.105469 C 54.925781 135.675781 54.9375 137.246094 54.949219 138.816406 C 54.953125 139.355469 54.957031 139.894531 54.960938 140.449219 C 54.980469 143.300781 54.992188 146.152344 55.003906 149.003906 C 55.011719 151.359375 55.035156 153.710938 55.0625 156.0625 C 55.097656 158.914062 55.117188 161.761719 55.121094 164.613281 C 55.125 165.695312 55.136719 166.777344 55.15625 167.859375 C 55.296875 177.367188 55.296875 177.367188 52.925781 180.71875 C 52.339844 181.316406 51.753906 181.917969 51.148438 182.535156 C 47.050781 181.136719 43.632812 179.480469 40.066406 177.042969 C 39.367188 176.570312 39.367188 176.570312 38.65625 176.089844 C 35.164062 173.6875 31.988281 171.050781 28.914062 168.128906 C 27.390625 166.617188 27.390625 166.617188 25.492188 165.488281 C 23.761719 163.796875 23.761719 163.796875 23.328125 161.34375 C 23.316406 160.355469 23.328125 159.367188 23.351562 158.378906 C 23.351562 157.835938 23.351562 157.292969 23.351562 156.734375 C 23.351562 154.949219 23.382812 153.164062 23.410156 151.378906 C 23.417969 150.136719 23.421875 148.898438 23.425781 147.65625 C 23.4375 144.398438 23.472656 141.136719 23.515625 137.875 C 23.550781 134.546875 23.566406 131.21875 23.585938 127.890625 C 23.625 121.363281 23.6875 114.832031 23.761719 108.304688 Z M 23.761719 108.304688 " fill-opacity="1" fill-rule="nonzero"/><path fill="#306297" d="M 223.394531 176.050781 C 222.933594 178.222656 222.207031 180.027344 221.1875 181.996094 C 220.929688 182.503906 220.667969 183.015625 220.398438 183.539062 C 220.097656 184.113281 220.097656 184.113281 219.792969 184.699219 C 217.308594 184.175781 215.128906 183.242188 212.8125 182.222656 C 205.730469 179.261719 197.863281 177.183594 190.28125 179.613281 C 187.632812 180.84375 185.648438 182.046875 183.667969 184.203125 C 182.558594 187.613281 182.484375 190.550781 183.847656 193.886719 C 187.785156 198.613281 193.007812 199.523438 198.757812 200.960938 C 219.339844 206.21875 219.339844 206.21875 224.835938 214.246094 C 226.464844 219.132812 226.382812 225.945312 224.523438 230.777344 C 221.226562 236.835938 215.722656 240.394531 209.277344 242.464844 C 199.582031 244.675781 187.820312 244.332031 178.710938 240.191406 C 178.035156 239.890625 177.355469 239.585938 176.65625 239.277344 C 173.746094 237.890625 171.164062 236.417969 168.621094 234.425781 C 169.097656 232.050781 169.988281 230.21875 171.191406 228.121094 C 171.519531 227.546875 171.847656 226.96875 172.183594 226.375 C 172.4375 225.941406 172.6875 225.507812 172.945312 225.058594 C 173.914062 225.644531 173.914062 225.644531 174.902344 226.242188 C 184.488281 231.96875 192.675781 234.089844 203.9375 232.984375 C 207.789062 231.953125 211.457031 230.558594 213.578125 226.996094 C 214.339844 223.707031 214.589844 221.164062 213.082031 218.078125 C 208.792969 214.386719 203.015625 213.4375 197.632812 212.128906 C 180.171875 207.890625 180.171875 207.890625 175.109375 202.714844 C 174.730469 202.351562 174.355469 201.988281 173.964844 201.617188 C 170.320312 197.175781 170.761719 190.914062 171.269531 185.480469 C 172.042969 180.578125 174.941406 177.289062 178.710938 174.292969 C 191.933594 165.421875 210.378906 167.375 223.394531 176.050781 Z M 223.394531 176.050781 " fill-opacity="1" fill-rule="nonzero"/><path fill="#62b2d4" d="M 98.097656 211.738281 C 98.695312 211.746094 99.292969 211.75 99.90625 211.757812 C 100.585938 211.757812 101.261719 211.757812 101.960938 211.757812 C 102.691406 211.773438 103.421875 211.789062 104.171875 211.804688 C 104.921875 211.808594 105.671875 211.8125 106.441406 211.816406 C 108.835938 211.832031 111.230469 211.867188 113.625 211.90625 C 115.246094 211.921875 116.867188 211.933594 118.488281 211.945312 C 122.46875 211.976562 126.445312 212.023438 130.425781 212.085938 C 130.449219 213.925781 130.464844 215.765625 130.476562 217.605469 C 130.488281 218.382812 130.488281 218.382812 130.496094 219.171875 C 130.53125 226.222656 128.515625 231.875 123.9375 237.308594 C 119.519531 240.828125 115.753906 241.851562 110.175781 241.796875 C 109.601562 241.796875 109.023438 241.796875 108.429688 241.800781 C 106.53125 241.796875 104.632812 241.785156 102.730469 241.773438 C 101.410156 241.773438 100.09375 241.769531 98.773438 241.769531 C 95.304688 241.761719 91.835938 241.75 88.367188 241.734375 C 84.828125 241.71875 81.285156 241.710938 77.746094 241.703125 C 70.800781 241.691406 63.859375 241.664062 56.914062 241.632812 C 56.914062 241.398438 56.914062 241.160156 56.914062 240.914062 C 57.6875 240.878906 58.457031 240.84375 59.253906 240.808594 C 60.261719 240.753906 61.265625 240.699219 62.273438 240.644531 C 62.785156 240.621094 63.292969 240.597656 63.816406 240.574219 C 65.125 240.5 66.425781 240.351562 67.722656 240.191406 C 67.960938 239.71875 68.199219 239.242188 68.445312 238.75 C 69.585938 238.136719 70.746094 237.558594 71.914062 236.996094 C 81.40625 231.886719 89.652344 222.59375 95.320312 213.46875 C 96.550781 212.085938 96.550781 212.085938 98.097656 211.738281 Z M 98.097656 211.738281 " fill-opacity="1" fill-rule="nonzero"/><path fill="#306193" d="M 359.609375 169.5625 C 359.609375 173.132812 359.609375 176.699219 359.609375 180.375 C 358.0625 180.554688 356.515625 180.730469 354.925781 180.914062 C 348.128906 181.890625 342.886719 184.066406 338.574219 189.609375 C 335.359375 195.261719 335.582031 200.855469 335.527344 207.21875 C 335.515625 208.210938 335.5 209.207031 335.484375 210.203125 C 335.449219 212.804688 335.417969 215.40625 335.394531 218.011719 C 335.363281 220.671875 335.328125 223.335938 335.289062 225.996094 C 335.222656 231.210938 335.160156 236.421875 335.105469 241.632812 C 331.539062 241.632812 327.96875 241.632812 324.292969 241.632812 C 324.292969 218.089844 324.292969 194.542969 324.292969 170.285156 C 327.625 170.285156 330.953125 170.285156 334.382812 170.285156 C 334.382812 175.042969 334.382812 179.796875 334.382812 184.699219 C 334.859375 184.699219 335.335938 184.699219 335.824219 184.699219 C 335.90625 184.28125 335.988281 183.863281 336.070312 183.433594 C 337.578125 178.3125 342.175781 174.347656 346.636719 171.726562 C 350.996094 169.671875 354.832031 169.335938 359.609375 169.5625 Z M 359.609375 169.5625 " fill-opacity="1" fill-rule="nonzero"/><path fill="#f9fbfb" d="M 287.097656 182.925781 C 291.367188 186.363281 294.457031 191.039062 296.1875 196.230469 C 296.1875 198.132812 296.1875 200.035156 296.1875 201.996094 C 280.253906 201.996094 264.316406 201.996094 247.898438 201.996094 C 247.898438 195.613281 249.875 191.148438 253.9375 186.230469 C 254.871094 185.472656 254.871094 185.472656 255.828125 184.699219 C 256.25 184.339844 256.671875 183.976562 257.105469 183.605469 C 266.300781 176.121094 277.242188 176.578125 287.097656 182.925781 Z M 287.097656 182.925781 " fill-opacity="1" fill-rule="nonzero"/><path fill="#2e5f92" d="M 141.957031 170.285156 C 145.523438 170.285156 149.089844 170.285156 152.765625 170.285156 C 152.765625 193.832031 152.765625 217.375 152.765625 241.632812 C 149.199219 241.632812 145.632812 241.632812 141.957031 241.632812 C 141.957031 218.089844 141.957031 194.542969 141.957031 170.285156 Z M 141.957031 170.285156 " fill-opacity="1" fill-rule="nonzero"/><path fill="#6ab6d5" d="M 55.472656 181.09375 C 57.632812 181.816406 57.632812 181.816406 58.582031 183.4375 C 59.722656 185.300781 60.394531 185.941406 62.09375 187.175781 C 62.761719 187.785156 63.429688 188.394531 64.121094 189.023438 C 64.210938 191.277344 64.210938 191.277344 64.121094 193.347656 C 65.171875 194.871094 65.171875 194.871094 67.003906 195.507812 C 67.792969 195.359375 68.578125 195.210938 69.390625 195.058594 C 72.28125 194.765625 72.484375 194.84375 74.617188 196.5 C 75.027344 196.835938 75.4375 197.171875 75.859375 197.515625 C 77.613281 198.761719 79.304688 198.957031 81.417969 199.113281 C 80.363281 202.195312 78.800781 204.464844 76.824219 207.039062 C 76.269531 207.769531 75.710938 208.496094 75.140625 209.246094 C 74.59375 209.945312 74.050781 210.644531 73.488281 211.363281 C 72.976562 212.035156 72.460938 212.703125 71.929688 213.390625 C 70.292969 215.34375 69.683594 215.632812 67.160156 215.90625 C 64.269531 215.636719 63.164062 214.757812 60.921875 212.941406 C 60.183594 212.351562 59.445312 211.761719 58.683594 211.152344 C 58.089844 210.675781 58.089844 210.675781 57.484375 210.191406 C 56.101562 209.132812 54.679688 208.167969 53.230469 207.210938 C 52.484375 206.707031 52.484375 206.707031 51.726562 206.191406 C 50.757812 205.539062 49.777344 204.898438 48.789062 204.273438 C 47.453125 203.351562 46.402344 202.539062 45.382812 201.273438 C 44.753906 197.667969 44.964844 196.296875 46.675781 193.074219 C 47.527344 191.9375 47.527344 191.9375 48.402344 190.78125 C 48.695312 190.378906 48.992188 189.976562 49.296875 189.566406 C 50.144531 188.414062 51.003906 187.277344 51.867188 186.140625 C 52.609375 185.105469 53.34375 184.070312 54.074219 183.03125 C 54.535156 182.394531 54.996094 181.753906 55.472656 181.09375 Z M 55.472656 181.09375 " fill-opacity="1" fill-rule="nonzero"/><path fill="#7bc2c2" d="M 70.515625 166.328125 C 76.089844 167.617188 80.976562 172.417969 85.425781 175.871094 C 85.863281 176.210938 86.304688 176.550781 86.753906 176.898438 C 89.671875 179.214844 91.34375 180.625 91.867188 184.429688 C 91.789062 188.359375 89.582031 191.109375 87.183594 194.066406 C 86.851562 194.480469 86.519531 194.890625 86.175781 195.316406 C 84.164062 196.910156 82.101562 196.609375 79.628906 196.53125 C 76.617188 196.03125 75.453125 194.953125 73.488281 192.625 C 73.460938 191.425781 73.460938 190.222656 73.488281 189.023438 C 72.027344 187.203125 72.027344 187.203125 69.886719 186.140625 C 69.203125 186.289062 68.519531 186.4375 67.8125 186.589844 C 65.5625 186.859375 65.5625 186.859375 64.214844 186.085938 C 61.097656 183.519531 59.359375 181.351562 58.878906 177.253906 C 59.144531 174.675781 60.167969 173.5625 61.824219 171.589844 C 62.332031 170.972656 62.84375 170.351562 63.367188 169.714844 C 65.53125 167.378906 67.269531 166.203125 70.515625 166.328125 Z M 70.515625 166.328125 " fill-opacity="1" fill-rule="nonzero"/><path fill="#346498" d="M 149.164062 142.175781 C 151.800781 143.648438 153.25 144.703125 154.929688 147.222656 C 155.261719 150.820312 154.992188 152.988281 152.765625 155.871094 C 149.710938 157.910156 146.984375 157.953125 143.398438 157.3125 C 141.355469 156.082031 140.984375 155.210938 139.792969 152.988281 C 139.175781 150.382812 139.183594 148.261719 140.558594 145.917969 C 143.230469 142.605469 144.964844 141.773438 149.164062 142.175781 Z M 149.164062 142.175781 " fill-opacity="1" fill-rule="nonzero"/><path fill="#73c0d2" d="M 54.03125 191.183594 C 56.269531 192.242188 58.285156 193.492188 60.335938 194.878906 C 61.199219 195.460938 61.199219 195.460938 62.082031 196.054688 C 62.515625 196.351562 62.953125 196.648438 63.398438 196.949219 C 63.71875 196.589844 64.042969 196.226562 64.371094 195.851562 C 64.765625 195.5 65.15625 195.152344 65.5625 194.789062 C 67.320312 195.058594 67.320312 195.058594 69.164062 195.507812 C 69.628906 195.363281 70.09375 195.21875 70.570312 195.070312 C 72.046875 194.789062 72.046875 194.789062 73.28125 195.480469 C 73.875 195.984375 73.875 195.984375 74.480469 196.5 C 76.753906 198.273438 78.492188 198.898438 81.417969 199.113281 C 80.417969 201.917969 79.101562 204.132812 77.363281 206.546875 C 76.910156 207.183594 76.453125 207.816406 75.984375 208.472656 C 75.464844 209.191406 75.464844 209.191406 74.929688 209.921875 C 74.457031 209.210938 73.980469 208.496094 73.488281 207.761719 C 71.289062 206.886719 71.289062 206.886719 69.164062 206.320312 C 69.164062 205.84375 69.164062 205.367188 69.164062 204.878906 C 68.632812 204.6875 68.101562 204.492188 67.554688 204.292969 C 65.609375 203.457031 64.195312 202.542969 62.53125 201.246094 C 61.988281 200.828125 61.449219 200.410156 60.890625 199.980469 C 60.335938 199.546875 59.78125 199.109375 59.210938 198.664062 C 58.644531 198.222656 58.074219 197.78125 57.488281 197.328125 C 56.09375 196.246094 54.699219 195.160156 53.308594 194.066406 C 53.546875 193.117188 53.785156 192.164062 54.03125 191.183594 Z M 54.03125 191.183594 " fill-opacity="1" fill-rule="nonzero"/><path fill="#f2f8f7" d="M 54.03125 191.183594 C 56.246094 192.21875 58.148438 193.449219 60.113281 194.898438 C 61.011719 195.558594 61.011719 195.558594 61.929688 196.234375 C 62.546875 196.695312 63.167969 197.152344 63.804688 197.625 C 64.425781 198.082031 65.050781 198.539062 65.691406 199.011719 C 70.734375 202.734375 70.734375 202.734375 72.769531 204.878906 C 72.53125 205.59375 72.292969 206.304688 72.046875 207.039062 C 71.097656 206.804688 70.144531 206.566406 69.164062 206.320312 C 69.164062 205.84375 69.164062 205.367188 69.164062 204.878906 C 68.632812 204.6875 68.101562 204.492188 67.554688 204.292969 C 65.609375 203.457031 64.195312 202.542969 62.53125 201.246094 C 61.988281 200.828125 61.449219 200.410156 60.890625 199.980469 C 60.335938 199.546875 59.78125 199.109375 59.210938 198.664062 C 58.644531 198.222656 58.074219 197.78125 57.488281 197.328125 C 56.09375 196.246094 54.699219 195.160156 53.308594 194.066406 C 53.546875 193.117188 53.785156 192.164062 54.03125 191.183594 Z M 54.03125 191.183594 " fill-opacity="1" fill-rule="nonzero"/><path fill="#75caa4" d="M 84.300781 163.796875 C 87.039062 165.082031 89.328125 166.746094 91.507812 168.84375 C 92.410156 171.546875 92.410156 171.546875 92.226562 173.886719 C 91.515625 174.957031 91.515625 174.957031 90.785156 176.050781 C 89.835938 175.574219 88.882812 175.097656 87.902344 174.609375 C 87.992188 174.089844 88.082031 173.570312 88.175781 173.03125 C 88.070312 170.792969 88.070312 170.792969 86.011719 168.933594 C 83.726562 167.15625 83.726562 167.15625 81.238281 167.582031 C 80.257812 167.851562 80.257812 167.851562 79.253906 168.121094 C 78.78125 167.886719 78.304688 167.648438 77.8125 167.402344 C 78.085938 166.003906 78.085938 166.003906 78.535156 164.519531 C 80.570312 163.5 82.039062 163.621094 84.300781 163.796875 Z M 84.300781 163.796875 " fill-opacity="1" fill-rule="nonzero"/><path fill="#8ac79f" d="M 59.796875 145.78125 C 60.035156 145.78125 60.273438 145.78125 60.515625 145.78125 C 61.207031 151.003906 61.277344 156.148438 61.191406 161.40625 C 61.230469 163.347656 61.371094 164.847656 61.957031 166.679688 C 61.246094 167.15625 60.53125 167.632812 59.796875 168.121094 C 59.796875 160.75 59.796875 153.378906 59.796875 145.78125 Z M 59.796875 145.78125 " fill-opacity="1" fill-rule="nonzero"/><path fill="#78c298" d="M 95.109375 187.582031 C 95.832031 189.023438 95.832031 189.023438 95.246094 191.140625 C 93.355469 195.386719 89.644531 198.695312 86.460938 201.996094 C 86.226562 201.519531 85.988281 201.042969 85.742188 200.554688 C 86.238281 199.921875 86.730469 199.285156 87.242188 198.632812 C 87.898438 197.785156 88.554688 196.941406 89.210938 196.09375 C 89.535156 195.679688 89.863281 195.261719 90.195312 194.832031 C 92.007812 192.496094 93.648438 190.160156 95.109375 187.582031 Z M 95.109375 187.582031 " fill-opacity="1" fill-rule="nonzero"/><path fill="#87cfad" d="M 88.625 167.402344 C 90.019531 167.808594 90.019531 167.808594 91.507812 168.84375 C 92.136719 171.320312 92.136719 171.320312 92.226562 173.886719 C 91.515625 174.957031 91.515625 174.957031 90.785156 176.050781 C 89.835938 175.574219 88.882812 175.097656 87.902344 174.609375 C 88.140625 173.421875 88.378906 172.230469 88.625 171.003906 C 89.101562 171.003906 89.574219 171.003906 90.066406 171.003906 C 89.589844 169.816406 89.113281 168.628906 88.625 167.402344 Z M 88.625 167.402344 " fill-opacity="1" fill-rule="nonzero"/><path fill="#6fc3ca" d="M 68.445312 188.300781 C 69.160156 188.539062 69.871094 188.777344 70.605469 189.023438 C 70.371094 189.972656 70.132812 190.925781 69.886719 191.90625 C 68.933594 192.144531 67.984375 192.382812 67.003906 192.625 C 67.003906 189.742188 67.003906 189.742188 68.445312 188.300781 Z M 68.445312 188.300781 " fill-opacity="1" fill-rule="nonzero"/><path fill="#3e6ea1" d="M 298.347656 230.101562 C 299.0625 230.101562 299.777344 230.101562 300.511719 230.101562 C 299.523438 232.382812 299.078125 232.980469 296.90625 234.425781 C 296.671875 233.953125 296.433594 233.476562 296.1875 232.984375 C 297.132812 231.542969 297.132812 231.542969 298.347656 230.101562 Z M 298.347656 230.101562 " fill-opacity="1" fill-rule="nonzero"/><path fill="#84d5aa" d="M 81.417969 163.796875 C 81.417969 164.273438 81.417969 164.75 81.417969 165.238281 C 80.703125 165.597656 80.703125 165.597656 79.976562 165.960938 C 80.214844 166.675781 80.453125 167.386719 80.695312 168.121094 C 79.746094 167.886719 78.792969 167.648438 77.8125 167.402344 C 78.085938 166.003906 78.085938 166.003906 78.535156 164.519531 C 79.976562 163.796875 79.976562 163.796875 81.417969 163.796875 Z M 81.417969 163.796875 " fill-opacity="1" fill-rule="nonzero"/></svg>